<svg xmlns="http://www.w3.org/2000/svg" xmlns:xlink="http://www.w3.org/1999/xlink" width="378" zoomAndPan="magnify" viewBox="0 0 282.96 283.499989" height="378" preserveAspectRatio="xMidYMid meet" version="1.0"><defs><clipPath id="642eda8bee"><path d="M 0.230469 0 L 282.691406 0 L 282.691406 283 L 0.230469 283 Z M 0.230469 0 " clip-rule="nonzero"/></clipPath><clipPath id="6bcde17906"><path d="M 33.054688 51.566406 L 250.171875 51.566406 L 250.171875 231.25 L 33.054688 231.25 Z M 33.054688 51.566406 " clip-rule="nonzero"/></clipPath></defs><g clip-path="url(#642eda8bee)"><path fill="#ffffff" d="M 0.230469 0 L 283.230469 0 L 283.230469 283 L 0.230469 283 Z M 0.230469 0 " fill-opacity="1" fill-rule="nonzero"/><path fill="#ffffff" d="M 0.230469 0 L 283.230469 0 L 283.230469 283 L 0.230469 283 Z M 0.230469 0 " fill-opacity="1" fill-rule="nonzero"/></g><path fill="#03346e" d="M 100.125 85.515625 C 100.027344 85.515625 99.949219 85.59375 99.949219 85.691406 L 99.949219 146.871094 C 99.949219 146.964844 100.027344 147.046875 100.125 147.046875 C 100.222656 147.046875 100.300781 146.964844 100.300781 146.871094 L 100.300781 85.691406 C 100.300781 85.59375 100.222656 85.515625 100.125 85.515625 Z M 100.125 85.515625 " fill-opacity="1" fill-rule="nonzero"/><path fill="#03346e" d="M 201.742188 62.753906 C 207.390625 61.703125 213.097656 60.554688 218.714844 59.339844 C 218.808594 59.320312 218.871094 59.226562 218.847656 59.128906 C 218.828125 59.035156 218.734375 58.976562 218.640625 58.996094 C 213.027344 60.210938 207.320312 61.359375 201.679688 62.40625 C 201.585938 62.425781 201.519531 62.515625 201.539062 62.613281 C 201.558594 62.707031 201.648438 62.769531 201.742188 62.753906 Z M 201.742188 62.753906 " fill-opacity="1" fill-rule="nonzero"/><path fill="#03346e" d="M 201.632812 103.328125 C 201.648438 103.414062 201.722656 103.46875 201.804688 103.46875 C 201.816406 103.46875 201.828125 103.46875 201.839844 103.464844 L 219.179688 99.964844 C 219.273438 99.945312 219.335938 99.855469 219.316406 99.757812 C 219.296875 99.664062 219.207031 99.605469 219.109375 99.621094 L 201.769531 103.125 C 201.675781 103.140625 201.613281 103.234375 201.632812 103.328125 Z M 201.632812 103.328125 " fill-opacity="1" fill-rule="nonzero"/><path fill="#03346e" d="M 200.578125 135.769531 C 206.40625 134.15625 212.414062 133.074219 218.441406 132.5625 C 218.539062 132.550781 218.609375 132.46875 218.601562 132.371094 C 218.59375 132.273438 218.507812 132.207031 218.410156 132.210938 C 212.363281 132.726562 206.332031 133.8125 200.484375 135.429688 C 200.390625 135.457031 200.335938 135.550781 200.363281 135.644531 C 200.390625 135.742188 200.488281 135.792969 200.578125 135.769531 Z M 200.578125 135.769531 " fill-opacity="1" fill-rule="nonzero"/><path fill="#03346e" d="M 86.476562 61.492188 C 86.492188 61.398438 86.425781 61.308594 86.332031 61.289062 C 80.679688 60.34375 74.925781 59.554688 69.21875 58.945312 C 69.121094 58.929688 69.039062 59.003906 69.027344 59.097656 C 69.015625 59.195312 69.085938 59.28125 69.183594 59.292969 C 74.878906 59.902344 80.628906 60.691406 86.273438 61.636719 C 86.367188 61.652344 86.460938 61.589844 86.476562 61.492188 Z M 86.476562 61.492188 " fill-opacity="1" fill-rule="nonzero"/><path fill="#03346e" d="M 86.03125 101.851562 C 86.042969 101.757812 85.976562 101.667969 85.878906 101.65625 C 80.488281 100.949219 75 100.492188 69.570312 100.296875 C 69.472656 100.296875 69.394531 100.371094 69.390625 100.46875 C 69.386719 100.5625 69.460938 100.644531 69.558594 100.648438 C 74.976562 100.84375 80.453125 101.300781 85.835938 102.003906 C 85.929688 102.015625 86.019531 101.949219 86.03125 101.851562 Z M 86.03125 101.851562 " fill-opacity="1" fill-rule="nonzero"/><path fill="#03346e" d="M 86.421875 131.449219 C 86.4375 131.351562 86.371094 131.261719 86.277344 131.246094 C 80.878906 130.355469 75.371094 129.828125 69.90625 129.675781 C 69.808594 129.667969 69.730469 129.746094 69.726562 129.84375 C 69.722656 129.941406 69.800781 130.023438 69.894531 130.023438 C 75.347656 130.175781 80.839844 130.703125 86.21875 131.59375 C 86.3125 131.609375 86.40625 131.546875 86.421875 131.449219 Z M 86.421875 131.449219 " fill-opacity="1" fill-rule="nonzero"/><path fill="#03346e" d="M 124.957031 159.800781 C 124.859375 159.800781 124.78125 159.878906 124.78125 159.972656 L 124.78125 180.210938 C 124.78125 180.308594 124.859375 180.386719 124.957031 180.386719 C 125.054688 180.386719 125.132812 180.308594 125.132812 180.210938 L 125.132812 159.972656 C 125.132812 159.878906 125.054688 159.800781 124.957031 159.800781 Z M 124.957031 159.800781 " fill-opacity="1" fill-rule="nonzero"/><path fill="#03346e" d="M 92.816406 141.0625 C 92.570312 140.941406 92.222656 141.140625 92.042969 141.507812 C 91.863281 141.878906 91.917969 142.273438 92.167969 142.394531 C 92.414062 142.515625 92.761719 142.316406 92.941406 141.949219 C 93.121094 141.582031 93.066406 141.183594 92.816406 141.0625 Z M 92.816406 141.0625 " fill-opacity="1" fill-rule="nonzero"/><path fill="#03346e" d="M 91.496094 140.589844 C 91.410156 140.636719 91.375 140.742188 91.421875 140.828125 C 91.464844 140.914062 91.570312 140.945312 91.65625 140.902344 C 92.328125 140.550781 93.175781 140.789062 93.554688 141.472656 C 93.585938 141.53125 93.644531 141.5625 93.707031 141.5625 C 93.839844 141.5625 93.925781 141.421875 93.859375 141.304688 C 93.386719 140.453125 92.332031 140.15625 91.496094 140.589844 Z M 91.496094 140.589844 " fill-opacity="1" fill-rule="nonzero"/><path fill="#03346e" d="M 96.484375 220.597656 C 96.484375 220.5 96.40625 220.421875 96.308594 220.421875 L 34.46875 220.421875 C 34.371094 220.421875 34.292969 220.5 34.292969 220.597656 C 34.292969 220.695312 34.371094 220.773438 34.46875 220.773438 L 96.308594 220.773438 C 96.40625 220.773438 96.484375 220.695312 96.484375 220.597656 Z M 96.484375 220.597656 " fill-opacity="1" fill-rule="nonzero"/><path fill="#03346e" d="M 188.164062 188.964844 C 188.261719 188.964844 188.339844 188.886719 188.339844 188.792969 L 188.339844 72.082031 C 188.339844 71.984375 188.261719 71.90625 188.164062 71.90625 C 188.070312 71.90625 187.988281 71.984375 187.988281 72.082031 L 187.988281 188.792969 C 187.988281 188.886719 188.070312 188.964844 188.164062 188.964844 Z M 188.164062 188.964844 " fill-opacity="1" fill-rule="nonzero"/><path fill="#03346e" d="M 160.585938 95.203125 C 144.601562 106.90625 129.390625 119.945312 115.382812 133.949219 C 115.316406 134.019531 115.316406 134.128906 115.382812 134.199219 C 115.453125 134.265625 115.5625 134.265625 115.632812 134.199219 C 129.628906 120.203125 144.820312 107.179688 160.792969 95.488281 C 160.871094 95.429688 160.886719 95.320312 160.832031 95.242188 C 160.773438 95.164062 160.664062 95.148438 160.585938 95.203125 Z M 160.585938 95.203125 " fill-opacity="1" fill-rule="nonzero"/><path fill="#03346e" d="M 144.496094 119.90625 C 139.050781 124.355469 133.636719 128.996094 128.40625 133.703125 C 128.335938 133.769531 128.328125 133.878906 128.394531 133.949219 C 128.457031 134.023438 128.570312 134.027344 128.640625 133.964844 C 133.867188 129.261719 139.273438 124.621094 144.71875 120.179688 C 144.792969 120.117188 144.804688 120.007812 144.742188 119.929688 C 144.683594 119.855469 144.574219 119.84375 144.496094 119.90625 Z M 144.496094 119.90625 " fill-opacity="1" fill-rule="nonzero"/><g clip-path="url(#6bcde17906)"><path fill="#03346e" d="M 250.164062 193.953125 C 246.191406 193.953125 243.101562 193.953125 239.128906 193.953125 L 239.128906 159.324219 C 239.128906 159.226562 239.050781 159.148438 238.957031 159.148438 C 229.914062 159.148438 225.292969 159.148438 223.808594 159.148438 L 222.125 51.738281 C 222.121094 51.628906 222.019531 51.550781 221.914062 51.570312 L 197.839844 56.234375 L 91.113281 56.234375 C 64.136719 53.328125 65.894531 53.445312 65.785156 53.542969 C 65.691406 53.628906 65.617188 153.214844 65.617188 153.265625 C 64.242188 154.980469 63.007812 156.839844 61.921875 158.75 C 62.023438 158.777344 69.890625 166.589844 78.765625 166.972656 C 78.796875 166.976562 78.824219 166.984375 78.84375 166.996094 C 80.285156 164.449219 80.027344 164.898438 80.53125 164.011719 C 81.609375 166.59375 82.882812 169.105469 84.839844 170.144531 C 85.785156 170.644531 86.839844 171.1875 87.789062 171.667969 C 91.300781 191.617188 90.261719 185.699219 90.929688 189.496094 L 90.929688 191.3125 L 83.21875 191.3125 C 83.363281 189.886719 83.421875 188.460938 83.324219 187.046875 C 82.898438 180.960938 79.734375 175.632812 77.117188 169.699219 C 77.539062 169.574219 77.664062 169.09375 77.875 168.726562 C 78.941406 166.824219 78.5625 167.515625 78.664062 167.324219 C 74.242188 167.105469 69.8125 165.03125 66.152344 162.542969 C 63.65625 160.859375 62.007812 159.3125 61.75 159.0625 C 61.125 160.175781 60.546875 161.300781 60.007812 162.421875 C 59.96875 162.496094 59.945312 162.554688 60.007812 162.609375 C 60.113281 162.710938 60.21875 162.804688 60.328125 162.902344 C 58.933594 166.269531 50.765625 186.46875 47.625 204.710938 C 47.335938 204.710938 47.132812 204.703125 47.054688 204.75 C 47.011719 204.777344 46.980469 204.820312 46.972656 204.871094 C 44.183594 221.652344 45.144531 215.867188 44.9375 217.117188 L 33.246094 217.117188 C 33.148438 217.117188 33.070312 217.195312 33.070312 217.292969 L 33.070312 223.171875 C 33.070312 223.269531 33.148438 223.347656 33.246094 223.347656 L 35.601562 223.347656 L 35.601562 229.738281 C 35.601562 229.835938 35.679688 229.914062 35.777344 229.914062 L 39.890625 229.914062 C 39.984375 229.914062 40.0625 229.835938 40.0625 229.738281 L 40.0625 223.347656 L 48.496094 223.347656 L 48.496094 229.738281 L 52.609375 229.738281 L 52.609375 223.347656 L 61.039062 223.347656 L 61.039062 229.738281 C 61.039062 229.835938 61.117188 229.914062 61.214844 229.914062 L 65.328125 229.914062 C 65.421875 229.914062 65.503906 229.835938 65.503906 229.738281 L 65.503906 223.347656 L 73.933594 223.347656 L 73.933594 229.738281 L 78.046875 229.738281 L 78.046875 223.347656 L 86.480469 223.347656 L 86.480469 229.738281 C 86.480469 229.835938 86.558594 229.914062 86.652344 229.914062 L 90.765625 229.914062 C 90.863281 229.914062 90.941406 229.835938 90.941406 229.738281 L 90.941406 229.40625 C 91.707031 229.914062 92.628906 230.210938 93.617188 230.210938 L 98.6875 230.210938 C 101.367188 230.210938 103.542969 228.035156 103.542969 225.355469 L 103.542969 214.15625 L 105.132812 214.15625 L 105.132812 225.75 C 105.132812 228.433594 107.304688 230.605469 109.988281 230.605469 L 115.058594 230.605469 C 117.742188 230.605469 119.917969 228.433594 119.917969 225.75 L 119.917969 214.15625 L 165.214844 214.15625 L 165.214844 225.550781 C 165.214844 228.234375 167.390625 230.410156 170.074219 230.410156 L 175.144531 230.410156 C 177.828125 230.410156 180 228.234375 180 225.550781 L 180 214.15625 L 181.589844 214.15625 L 181.589844 225.945312 C 181.589844 228.625 183.765625 230.800781 186.445312 230.800781 L 190.03125 230.800781 L 190.03125 231.214844 C 190.03125 231.3125 190.109375 231.390625 190.203125 231.390625 C 190.398438 231.390625 242.78125 231.390625 242.875 231.390625 L 250.164062 231.390625 C 250.257812 231.390625 250.335938 231.3125 250.335938 231.214844 L 250.335938 194.128906 C 250.335938 194.035156 250.257812 193.953125 250.164062 193.953125 Z M 39.714844 229.5625 L 35.953125 229.5625 L 35.953125 223.347656 L 39.714844 223.347656 Z M 65.152344 229.5625 L 61.390625 229.5625 L 61.390625 223.347656 L 65.152344 223.347656 Z M 230.066406 193.953125 C 221.210938 193.953125 212.214844 193.953125 205.222656 193.953125 C 205.222656 192.335938 205.222656 165.972656 205.222656 159.496094 L 215.226562 159.496094 L 215.226562 165.148438 L 219.9375 165.148438 L 219.9375 159.496094 C 223.441406 159.496094 226.558594 159.496094 230.066406 159.496094 Z M 223.460938 159.148438 L 205.046875 159.148438 C 204.953125 159.148438 204.875 159.226562 204.875 159.324219 L 204.875 190.996094 L 198.03125 191.304688 L 198.03125 56.554688 L 221.777344 51.953125 Z M 105.5625 191.3125 L 113.242188 190.109375 L 113.242188 191.3125 Z M 97.898438 192.15625 L 95.667969 179.296875 C 95.648438 179.203125 95.558594 179.132812 95.464844 179.15625 C 95.367188 179.171875 95.304688 179.261719 95.320312 179.355469 L 97.550781 192.210938 L 91.917969 193.09375 L 88.179688 171.863281 C 89.515625 172.535156 90.964844 173.253906 92.292969 173.890625 C 91.910156 174.75 91.964844 174.800781 92.070312 174.882812 C 93.800781 176.269531 95.761719 177.421875 97.625 178.460938 C 98.546875 178.976562 99.589844 179.5625 100.722656 179.753906 C 101.039062 179.808594 101.371094 179.828125 101.667969 179.691406 C 101.988281 179.546875 102.246094 179.171875 102.132812 178.792969 C 102.601562 178.914062 103.472656 179.050781 103.917969 178.84375 C 104.175781 178.722656 104.347656 178.484375 104.351562 178.234375 C 104.355469 178.003906 104.242188 177.832031 104.097656 177.6875 C 104.488281 177.734375 104.996094 177.726562 105.335938 177.527344 C 105.8125 177.246094 105.933594 176.664062 105.464844 176.25 C 106.429688 176.078125 106.984375 175.195312 106.910156 174.828125 C 106.824219 174.382812 106.105469 174.355469 104.933594 174.011719 C 103.203125 173.5 102.546875 172.707031 102.070312 172.445312 C 102.578125 172.328125 103.371094 171.898438 103.296875 171.402344 C 103.289062 171.359375 103.269531 171.320312 103.253906 171.285156 L 106.601562 170.722656 L 109.917969 190.277344 C 109.8125 190.292969 98.902344 192 97.898438 192.15625 Z M 95.621094 168.195312 L 92.933594 150.601562 L 118.800781 146.367188 L 122.335938 167.738281 C 120.023438 168.125 104.878906 170.65625 102.949219 170.980469 C 102.277344 170.605469 101.308594 170.589844 100.628906 170.277344 C 100.046875 170.007812 98.664062 169.449219 97.320312 168.574219 C 97.039062 168.390625 96.824219 167.996094 96.402344 168.164062 C 96.210938 168.246094 96.0625 168.410156 95.972656 168.492188 C 95.875 168.417969 95.757812 168.316406 95.621094 168.195312 Z M 86.371094 151.675781 C 86.417969 151.667969 92.53125 150.667969 92.589844 150.65625 L 95.207031 167.804688 C 91.039062 163.867188 90.746094 163.554688 90.015625 162.980469 C 89.90625 162.898438 89.804688 162.820312 89.734375 162.726562 C 89.40625 162.265625 87.96875 156.089844 86.371094 151.675781 Z M 85.070312 148.445312 C 85.070312 148.445312 85.070312 148.441406 85.066406 148.441406 C 84.699219 147.738281 84.933594 148.144531 84.515625 147.472656 C 84.515625 147.46875 84.515625 147.46875 84.511719 147.464844 C 83.824219 146.453125 83.105469 145.988281 82.015625 145.59375 C 81.917969 145.5625 81.820312 145.523438 81.726562 145.492188 L 81.726562 145.476562 C 82.054688 145.171875 83.570312 143.769531 85.210938 142.15625 C 85.222656 142.40625 85.257812 142.636719 85.316406 142.875 C 85.25 144.496094 85.917969 146.449219 87.242188 147.953125 C 86.855469 148.929688 86.433594 149.976562 86.070312 150.851562 C 85.535156 149.433594 85.085938 148.484375 85.070312 148.445312 Z M 93.410156 143.835938 C 93.410156 144.242188 93.304688 144.183594 92.960938 144.171875 C 92.65625 144.179688 92.597656 144.222656 92.40625 144.480469 C 92.132812 144.855469 91.828125 145.238281 91.445312 145.558594 C 91.425781 145.515625 91.386719 145.480469 91.335938 145.464844 C 90.9375 145.359375 90.609375 144.980469 90.5625 144.570312 C 90.550781 144.472656 90.460938 144.40625 90.367188 144.414062 C 90.273438 144.425781 90.203125 144.515625 90.214844 144.609375 C 90.277344 145.136719 90.660156 145.601562 91.160156 145.773438 C 91.15625 145.773438 91.179688 145.761719 91.015625 145.867188 C 89.652344 146.648438 87.789062 146.324219 86.824219 145.199219 C 86.496094 144.8125 86.261719 144.355469 86.09375 143.996094 C 85.753906 143.265625 85.507812 142.546875 85.5625 141.742188 C 86.027344 141.980469 86.492188 141.882812 86.863281 141.570312 C 86.9375 141.511719 86.945312 141.398438 86.886719 141.324219 C 86.824219 141.25 86.714844 141.242188 86.636719 141.304688 C 85.820312 141.988281 84.855469 140.960938 85.113281 139.921875 C 85.261719 139.328125 85.753906 138.621094 86.425781 138.394531 C 86.804688 138.273438 87.253906 138.347656 87.574219 138.59375 C 88.164062 139.042969 88.0625 139.832031 87.515625 140.332031 C 87.445312 140.394531 87.441406 140.507812 87.503906 140.578125 C 87.570312 140.648438 87.679688 140.65625 87.753906 140.589844 C 87.769531 140.574219 87.78125 140.554688 87.796875 140.539062 C 88.65625 140.273438 89.515625 140.058594 90.34375 139.675781 C 91.25 139.257812 92.109375 138.726562 92.886719 138.097656 C 92.644531 138.292969 93.734375 139.308594 93.867188 139.402344 C 94.117188 139.585938 94.394531 139.726562 94.683594 139.839844 C 94.609375 140.242188 94.53125 140.496094 94.417969 140.8125 C 93.917969 142.210938 93.410156 142.542969 93.410156 143.835938 Z M 173.605469 159.515625 C 170.988281 156.457031 171.113281 156.496094 170.96875 156.492188 C 170.824219 156.484375 171.003906 156.40625 167.425781 159.902344 L 167.425781 153.683594 L 173.824219 153.683594 Z M 159.453125 170.441406 L 150.335938 170.441406 L 150.335938 159.324219 C 150.335938 159.226562 150.257812 159.148438 150.160156 159.148438 L 135.773438 159.148438 L 135.773438 150.054688 C 141.375 150.054688 153.835938 150.054688 159.453125 150.054688 C 159.453125 157.867188 159.453125 162.523438 159.453125 170.441406 Z M 125.652344 187.8125 L 110.265625 190.222656 L 106.945312 170.667969 L 122.390625 168.085938 Z M 118.71875 191.3125 L 118.71875 189.253906 C 126.28125 188.050781 125.914062 188.175781 125.996094 188.0625 C 126.078125 187.949219 126.222656 189.234375 121.328125 159.496094 L 149.988281 159.496094 C 149.988281 162.964844 149.988281 188.195312 149.988281 191.3125 Z M 152.992188 149.703125 L 135.597656 149.703125 L 135.597656 142.753906 L 152.992188 142.753906 Z M 86.253906 151.339844 C 86.25 151.335938 86.25 151.332031 86.25 151.332031 C 86.847656 149.910156 87.65625 147.871094 88.203125 146.46875 C 89.15625 146.761719 90.109375 146.679688 90.929688 146.296875 L 90.929688 150.574219 C 89.878906 150.746094 87.800781 151.085938 86.253906 151.339844 Z M 96.363281 168.605469 C 96.703125 168.308594 96.703125 168.59375 97.128906 168.867188 C 97.699219 169.238281 98.636719 169.773438 99.886719 170.328125 C 100.714844 170.691406 100.699219 170.730469 101.605469 170.921875 C 101.976562 171 102.359375 171.082031 102.707031 171.246094 C 102.992188 171.382812 103.035156 171.492188 102.792969 171.703125 C 102.453125 171.992188 102.015625 172.152344 101.523438 172.164062 C 101.359375 172.164062 101.289062 172.375 101.421875 172.476562 C 101.53125 172.5625 101.652344 172.625 101.769531 172.683594 C 102.164062 172.882812 102.441406 173.175781 102.867188 173.449219 C 103.480469 173.839844 104.140625 174.144531 104.835938 174.347656 C 105.464844 174.535156 106.535156 174.738281 106.566406 174.898438 C 106.574219 174.925781 106.550781 174.988281 106.539062 175.007812 C 106.285156 175.640625 105.535156 176.039062 104.867188 175.898438 C 103.730469 175.421875 102.570312 174.902344 101.4375 174.453125 C 101.347656 174.417969 101.246094 174.460938 101.210938 174.550781 C 101.171875 174.640625 101.21875 174.742188 101.308594 174.777344 C 102.160156 175.117188 104.949219 176.316406 104.75 176.230469 C 105.570312 176.585938 105.527344 177.007812 105.160156 177.222656 C 104.777344 177.449219 104.003906 177.355469 103.582031 177.222656 C 102.351562 176.738281 101.179688 176.175781 99.867188 175.5625 C 99.78125 175.519531 99.675781 175.558594 99.632812 175.644531 C 99.59375 175.734375 99.632812 175.835938 99.71875 175.878906 C 101.003906 176.480469 102.191406 177.050781 103.421875 177.539062 C 103.671875 177.820312 104.007812 177.984375 104.003906 178.226562 C 104 178.359375 103.882812 178.472656 103.769531 178.527344 C 103.617188 178.597656 103.433594 178.605469 103.261719 178.597656 C 102.660156 178.585938 102.046875 178.449219 101.496094 178.203125 C 101.488281 178.199219 101.480469 178.199219 101.46875 178.195312 C 100.679688 177.847656 99.90625 177.449219 99.164062 177.003906 C 99.082031 176.957031 98.972656 176.984375 98.921875 177.066406 C 98.875 177.148438 98.902344 177.257812 98.984375 177.304688 C 99.992188 177.910156 101.128906 178.449219 101.402344 178.546875 C 101.582031 178.640625 101.75 178.742188 101.796875 178.894531 C 101.855469 179.078125 101.699219 179.289062 101.519531 179.371094 C 101.289062 179.476562 101.003906 179.449219 100.78125 179.410156 C 99.710938 179.226562 98.738281 178.683594 97.796875 178.15625 C 95.972656 177.136719 94.054688 176.007812 92.359375 174.664062 C 92.453125 174.324219 93.015625 173.167969 93.050781 173.089844 C 93.859375 171.34375 94.855469 169.917969 96.363281 168.605469 Z M 150.335938 170.792969 C 152.410156 170.792969 167.285156 170.792969 169.75 170.792969 L 169.75 191.3125 L 150.335938 191.3125 C 150.335938 189.125 150.335938 173.796875 150.335938 170.792969 Z M 182.710938 153.332031 L 179.03125 153.332031 L 179.03125 85.875 C 179.03125 85.777344 178.953125 85.699219 178.855469 85.699219 C 178.757812 85.699219 178.679688 85.777344 178.679688 85.875 L 178.679688 153.332031 C 167.855469 153.332031 172.046875 153.332031 159.804688 153.332031 L 159.804688 149.878906 C 159.804688 149.78125 159.722656 149.703125 159.628906 149.703125 L 153.34375 149.703125 L 153.34375 142.578125 C 153.34375 142.480469 153.265625 142.402344 153.167969 142.402344 L 113.417969 142.402344 C 113.320312 142.402344 113.242188 142.480469 113.242188 142.578125 L 113.242188 146.921875 C 105.933594 148.117188 98.671875 149.304688 91.277344 150.515625 L 91.277344 146.117188 C 91.871094 145.753906 92.292969 145.230469 92.703125 144.667969 C 92.796875 144.539062 92.800781 144.523438 92.917969 144.523438 C 93.167969 144.523438 93.457031 144.605469 93.660156 144.296875 C 93.757812 144.140625 93.757812 143.957031 93.757812 143.835938 C 93.757812 142.363281 94.640625 141.933594 95.019531 139.953125 C 95.546875 140.117188 96.265625 140.277344 96.800781 140.136719 C 97.273438 140.015625 97.65625 139.675781 97.996094 139.328125 C 98.363281 138.953125 98.707031 138.550781 99.019531 138.128906 C 98.417969 138.207031 97.792969 138.070312 97.277344 137.753906 C 97.933594 137.554688 98.453125 137.03125 98.765625 136.421875 C 99.078125 135.8125 99.203125 135.125 99.253906 134.445312 C 98.652344 135.679688 97.214844 136.179688 96.359375 135.75 C 95.527344 135.332031 93.75 132.722656 92.617188 132.328125 C 92.175781 132.175781 91.714844 132.214844 91.277344 132.378906 L 91.277344 56.941406 L 100.671875 85.570312 L 178.828125 85.570312 L 197.683594 56.675781 L 197.683594 191.3125 L 182.886719 191.3125 L 182.886719 153.507812 C 182.886719 153.414062 182.808594 153.332031 182.710938 153.332031 Z M 65.96875 152.828125 L 66.078125 53.871094 L 90.929688 56.566406 L 90.929688 132.542969 C 90.535156 132.761719 90.179688 133.078125 89.910156 133.4375 C 89.847656 132.53125 88.917969 131.871094 88.007812 131.839844 C 87.101562 131.8125 86.25 132.269531 85.527344 132.816406 C 83.136719 134.632812 82.929688 137.515625 83.550781 139.386719 C 83.851562 140.292969 84.425781 141.078125 85.222656 141.59375 C 85.222656 141.617188 85.222656 141.636719 85.21875 141.65625 C 83.28125 143.574219 81.441406 145.265625 81.421875 145.28125 C 81.390625 145.308594 81.375 145.347656 81.371094 145.386719 C 81.351562 145.378906 81.335938 145.375 81.316406 145.371094 C 79.710938 144.929688 78.058594 145.003906 76.585938 145.5 C 72.457031 146.261719 68.628906 149.609375 65.96875 152.828125 Z M 80.210938 162.324219 C 79.964844 161.738281 77.28125 154.65625 77.097656 154.121094 C 77.066406 154.03125 76.96875 153.980469 76.875 154.011719 C 76.785156 154.042969 76.734375 154.140625 76.765625 154.234375 C 76.972656 154.84375 77.195312 155.449219 77.425781 156.054688 C 76.199219 156.683594 74.542969 156.457031 73.425781 155.492188 C 69.578125 152.148438 73.632812 143.933594 81.105469 145.683594 C 81.453125 145.761719 81.8125 145.886719 82.148438 146.019531 C 82.90625 146.324219 83.539062 146.675781 84.195312 147.617188 C 84.210938 147.65625 84.691406 148.425781 84.847656 148.796875 C 85.179688 149.539062 85.601562 150.582031 85.894531 151.390625 C 86.011719 151.746094 86.554688 152.925781 88.292969 159.132812 C 88.59375 160.210938 88.90625 161.328125 89.226562 162.414062 C 89.371094 162.894531 89.464844 163.003906 89.816406 163.273438 C 91.011719 164.210938 95.007812 168.183594 95.710938 168.734375 C 94.039062 170.316406 93.292969 171.710938 92.4375 173.570312 C 91.070312 172.914062 89.488281 172.132812 88.027344 171.394531 C 88.027344 171.394531 88.023438 171.394531 88.023438 171.394531 C 86.972656 170.863281 85.929688 170.324219 85.003906 169.835938 C 82.601562 168.558594 81.257812 164.816406 80.210938 162.324219 Z M 78.863281 214.089844 L 84.59375 215.957031 L 69.757812 215.957031 L 71.113281 207.808594 L 80.816406 207.808594 L 78.753906 213.867188 C 78.722656 213.957031 78.769531 214.058594 78.863281 214.089844 Z M 80.9375 207.457031 L 71.171875 207.457031 L 71.570312 205.0625 C 74.179688 205.0625 78.007812 205.15625 81.695312 205.246094 Z M 68.246094 178.820312 C 68.242188 178.820312 68.238281 178.820312 68.234375 178.816406 C 68.148438 178.773438 68.109375 178.667969 68.152344 178.578125 C 71.054688 172.675781 70.875 172.855469 71.027344 172.820312 C 71.039062 172.820312 72.273438 172.480469 72.972656 171.390625 C 73.027344 171.308594 73.136719 171.285156 73.21875 171.339844 C 73.300781 171.390625 73.324219 171.5 73.269531 171.582031 C 72.589844 172.632812 71.5 173.039062 71.199219 173.140625 L 68.472656 178.734375 C 68.453125 178.777344 68.417969 178.808594 68.375 178.820312 L 71.59375 187.027344 L 71.59375 204.714844 C 71.453125 204.71875 71.386719 204.710938 71.320312 204.753906 C 71.28125 204.78125 71.253906 204.824219 71.246094 204.871094 C 70.878906 207.09375 69.097656 217.796875 69.210938 217.117188 L 61.117188 217.117188 L 61.117188 215.976562 C 61.117188 215.898438 61.070312 215.832031 60.996094 215.808594 L 54.867188 213.8125 C 55.171875 212.921875 53.769531 217.027344 57.828125 205.132812 C 57.867188 205.019531 57.785156 204.902344 57.667969 204.902344 C 57.664062 204.902344 57.496094 204.898438 57.203125 204.886719 Z M 47.296875 205.0625 C 48.664062 205.03125 56.050781 205.210938 57.421875 205.246094 L 56.664062 207.457031 L 46.898438 207.457031 Z M 46.839844 207.808594 L 56.546875 207.808594 C 54.382812 214.203125 54.425781 213.878906 54.488281 214 C 54.550781 214.125 54.296875 213.972656 60.324219 215.957031 L 45.484375 215.957031 Z M 33.421875 217.46875 C 39.433594 217.46875 96.75 217.46875 99.011719 217.46875 L 99.011719 223 C 81.433594 223 41.148438 223 33.421875 223 Z M 90.589844 229.5625 L 86.828125 229.5625 L 86.828125 223.347656 L 90.589844 223.347656 Z M 88.757812 217.117188 L 85.390625 217.117188 L 85.390625 215.976562 C 85.390625 215.898438 85.34375 215.832031 85.269531 215.808594 L 79.140625 213.8125 L 81.226562 207.691406 C 81.226562 207.691406 81.230469 207.691406 81.230469 207.691406 L 82.105469 205.132812 C 82.144531 205.019531 82.0625 204.902344 81.941406 204.902344 L 80.738281 204.871094 C 81.355469 202.074219 82.851562 194.566406 83.179688 191.664062 C 83.554688 191.664062 81.160156 191.664062 91.308594 191.664062 L 91.601562 193.324219 C 91.617188 193.414062 91.707031 193.480469 91.800781 193.464844 L 103.324219 191.664062 C 173.222656 191.664062 187.191406 191.664062 197.867188 191.664062 L 204.875 191.347656 L 204.875 193.957031 L 190.203125 193.957031 C 190.128906 193.957031 190.066406 194.003906 190.042969 194.070312 L 88.757812 194.070312 C 88.660156 194.070312 88.582031 194.148438 88.582031 194.246094 L 88.582031 205.699219 C 88.582031 205.792969 88.660156 205.871094 88.757812 205.871094 C 88.757812 208.546875 88.757812 214.449219 88.757812 217.117188 Z M 111.550781 202.667969 L 111.550781 194.421875 L 177.449219 194.421875 L 177.449219 201.675781 L 190.027344 201.675781 L 190.027344 205.523438 L 88.933594 205.523438 L 88.933594 194.421875 L 92.214844 194.421875 L 92.214844 202.667969 Z M 216.585938 231.039062 L 190.378906 231.039062 L 190.378906 194.308594 L 200.753906 194.308594 L 200.753906 200.339844 L 205.636719 200.339844 L 205.636719 194.308594 L 216.585938 194.308594 Z M 216.9375 194.304688 L 227.308594 194.304688 L 227.308594 200.339844 L 232.191406 200.339844 L 232.191406 194.304688 C 235.871094 194.304688 239.09375 194.304688 242.699219 194.304688 L 242.699219 231.039062 L 216.9375 231.039062 Z M 216.9375 194.304688 " fill-opacity="1" fill-rule="nonzero"/></g></svg>