<svg xmlns="http://www.w3.org/2000/svg" xmlns:xlink="http://www.w3.org/1999/xlink" width="378" zoomAndPan="magnify" viewBox="0 0 282.96 283.499989" height="378" preserveAspectRatio="xMidYMid meet" version="1.0"><defs><clipPath id="0116795b5f"><path d="M 0.230469 0 L 282.691406 0 L 282.691406 283 L 0.230469 283 Z M 0.230469 0 " clip-rule="nonzero"/></clipPath><clipPath id="f2d02c3e5c"><path d="M 28.527344 65.773438 L 268.101562 65.773438 L 268.101562 232.730469 L 28.527344 232.730469 Z M 28.527344 65.773438 " clip-rule="nonzero"/></clipPath><clipPath id="425fa931c8"><path d="M 166 65 L 211.09375 65 L 211.09375 109.839844 L 166 109.839844 Z M 166 65 " clip-rule="nonzero"/></clipPath><clipPath id="828b2e5994"><path d="M 157.9375 52.191406 L 174 52.191406 L 174 69 L 157.9375 69 Z M 157.9375 52.191406 " clip-rule="nonzero"/></clipPath></defs><g clip-path="url(#0116795b5f)"><path fill="#ffffff" d="M 0.230469 0 L 283.230469 0 L 283.230469 283 L 0.230469 283 Z M 0.230469 0 " fill-opacity="1" fill-rule="nonzero"/><path fill="#ffffff" d="M 0.230469 0 L 283.230469 0 L 283.230469 283 L 0.230469 283 Z M 0.230469 0 " fill-opacity="1" fill-rule="nonzero"/></g><g clip-path="url(#f2d02c3e5c)"><path fill="#03346e" d="M 89.792969 68.496094 C 91.894531 67.316406 93.835938 65.78125 96.371094 65.820312 C 99.089844 65.863281 100.914062 67.578125 102.71875 69.382812 C 105.363281 68.144531 106.847656 66.078125 110.03125 66.074219 C 111.160156 66.074219 113.582031 66.183594 114.351562 67.101562 C 115.179688 68.09375 115.316406 75.3125 115.222656 76.914062 C 115.121094 78.675781 114.160156 79.453125 112.925781 80.5625 C 112.808594 83.21875 112.914062 85.894531 112.933594 88.554688 C 112.945312 92.011719 112.9375 95.46875 112.910156 98.925781 C 115.417969 98.28125 117.914062 97.289062 120.351562 96.410156 C 122.03125 95.800781 123.765625 95.261719 125.421875 94.605469 C 126.296875 94.261719 126.992188 93.476562 127.925781 93.25 C 128.613281 93.085938 129.667969 93.347656 130.355469 93.511719 C 131.832031 93.859375 133.273438 94.382812 134.742188 94.78125 C 138.511719 95.765625 142.261719 96.804688 146 97.894531 L 153.59375 100.082031 C 155.078125 100.503906 156.597656 100.855469 158.054688 101.355469 C 158.804688 101.613281 159.433594 101.953125 160.089844 102.390625 C 160.796875 103.554688 160.335938 110.28125 160.203125 111.984375 C 159.800781 112.640625 159.296875 113.015625 158.675781 113.445312 C 158.851562 119.390625 158.953125 125.339844 158.988281 131.292969 C 161.289062 130.582031 163.539062 129.648438 165.804688 128.835938 L 179.425781 124.058594 C 190.839844 120.210938 202.355469 116.703125 213.976562 113.535156 C 222.945312 111.269531 232 109.40625 241.132812 107.953125 C 246.472656 107.050781 251.847656 106.285156 257.160156 105.21875 C 257.492188 103.324219 257.234375 101.128906 258.257812 99.433594 C 258.988281 98.222656 260.109375 97.351562 261.492188 97.03125 C 263.007812 96.679688 264.792969 96.941406 266.09375 97.804688 C 267.339844 98.628906 267.902344 99.738281 268.214844 101.148438 L 268.214844 101.691406 C 267.941406 104.101562 267.765625 106.519531 267.480469 108.929688 C 265.8125 123.019531 263.476562 138.074219 259.734375 151.777344 C 258.835938 155.050781 257.847656 158.296875 256.769531 161.515625 C 255.6875 164.734375 254.519531 167.921875 253.261719 171.074219 C 252.003906 174.226562 250.65625 177.339844 249.222656 180.417969 C 247.789062 183.496094 246.269531 186.53125 244.664062 189.523438 C 243.519531 191.679688 242.246094 193.773438 241.046875 195.902344 C 239.207031 199.171875 237.792969 203.421875 234.378906 205.335938 C 231.5625 206.917969 228.054688 207.730469 224.964844 208.625 C 222.265625 209.40625 219.570312 210.242188 216.851562 210.953125 C 212.679688 212.039062 208.457031 212.945312 204.269531 213.972656 C 183.722656 219.179688 163.007812 223.601562 142.128906 227.242188 C 131 229.140625 119.929688 230.8125 108.679688 231.832031 C 103.371094 232.34375 98.050781 232.679688 92.71875 232.835938 C 89.558594 232.929688 86.40625 233.007812 83.25 232.785156 C 81.417969 232.648438 79.597656 232.425781 77.792969 232.113281 C 75.984375 231.796875 74.195312 231.394531 72.425781 230.902344 C 68.15625 229.722656 63.890625 227.699219 60.335938 225.035156 C 53.289062 219.761719 47.503906 210.945312 43.21875 203.382812 C 37.800781 193.8125 33.203125 183.84375 30.117188 173.277344 C 29.660156 171.710938 28.609375 169.136719 29.144531 167.546875 C 29.332031 166.992188 29.71875 166.8125 30.21875 166.554688 C 32.3125 165.472656 35.164062 164.535156 37.402344 163.609375 C 41.046875 162.101562 44.574219 160.445312 48.089844 158.664062 C 48.019531 156.089844 47.679688 153.476562 47.480469 150.90625 C 47.058594 145.925781 46.769531 140.9375 46.617188 135.945312 C 45.902344 135.78125 45.132812 135.652344 44.441406 135.414062 C 44.019531 135.269531 43.636719 134.988281 43.449219 134.574219 C 42.992188 133.578125 43.199219 126.183594 43.640625 125.222656 C 43.957031 124.53125 44.960938 124.023438 45.625 123.699219 C 47.167969 122.949219 48.808594 122.363281 50.40625 121.746094 L 58.285156 118.746094 L 80.554688 110.472656 C 83.246094 109.480469 85.980469 108.589844 88.660156 107.5625 C 88.515625 102.273438 87.933594 96.976562 87.6875 91.6875 L 87.40625 84.492188 C 87.367188 83.445312 87.449219 82.191406 87.242188 81.167969 C 87.050781 80.230469 86.058594 79.601562 85.710938 78.695312 C 85.03125 76.910156 84.730469 70.332031 85.578125 68.589844 C 85.8125 68.105469 86.175781 67.648438 86.707031 67.488281 C 87.714844 67.179688 88.957031 68.039062 89.792969 68.496094 Z M 89.792969 68.496094 " fill-opacity="1" fill-rule="nonzero"/></g><path fill="#ffffff" d="M 254.421875 129.792969 C 254.496094 131.179688 253.714844 133.757812 253.425781 135.203125 C 252.5625 139.488281 251.460938 143.714844 250.347656 147.941406 C 249.039062 152.90625 247.667969 157.917969 246.023438 162.785156 C 244.375 167.667969 242.449219 172.464844 240.59375 177.269531 C 236.90625 178.480469 233.292969 179.96875 229.660156 181.332031 C 225.261719 182.980469 220.785156 184.542969 216.332031 186.027344 C 205.183594 189.828125 193.9375 193.3125 182.589844 196.480469 C 171.246094 199.644531 159.820312 202.488281 148.3125 205.003906 C 126 210.035156 103.90625 214.363281 80.898438 213.664062 C 72.894531 213.417969 64.675781 212.433594 56.875 210.617188 C 54.835938 210.140625 52.828125 209.527344 50.8125 208.964844 C 49.792969 207.621094 48.960938 206.019531 48.128906 204.550781 C 46.484375 201.585938 44.875 198.601562 43.300781 195.597656 C 46.242188 196.304688 49.160156 197.082031 52.132812 197.660156 C 76.496094 202.382812 99.675781 201.058594 123.835938 195.992188 C 128.800781 194.949219 133.855469 194.171875 138.71875 192.710938 C 139.398438 193.496094 140.0625 194.199219 140.96875 194.730469 C 141.0625 194.785156 141.160156 194.839844 141.261719 194.890625 C 141.359375 194.945312 141.457031 194.992188 141.558594 195.039062 C 141.660156 195.085938 141.761719 195.128906 141.867188 195.171875 C 141.96875 195.210938 142.074219 195.25 142.179688 195.289062 C 142.285156 195.324219 142.390625 195.359375 142.5 195.390625 C 142.605469 195.421875 142.714844 195.449219 142.820312 195.472656 C 142.929688 195.5 143.039062 195.523438 143.148438 195.542969 C 143.257812 195.5625 143.367188 195.582031 143.476562 195.597656 C 143.589844 195.609375 143.699219 195.625 143.808594 195.632812 C 143.921875 195.640625 144.03125 195.648438 144.144531 195.652344 C 144.253906 195.65625 144.367188 195.65625 144.476562 195.65625 C 144.589844 195.65625 144.699219 195.648438 144.8125 195.644531 C 144.921875 195.636719 145.035156 195.625 145.144531 195.613281 C 145.253906 195.601562 145.367188 195.585938 145.476562 195.566406 C 145.585938 195.550781 145.695312 195.527344 145.804688 195.503906 C 145.914062 195.480469 146.019531 195.453125 146.128906 195.425781 C 147.914062 194.933594 149.097656 193.84375 149.96875 192.253906 C 150.035156 192.097656 150.097656 191.933594 150.152344 191.773438 C 150.210938 191.609375 150.261719 191.445312 150.304688 191.277344 C 150.351562 191.113281 150.390625 190.945312 150.425781 190.773438 C 150.457031 190.605469 150.484375 190.4375 150.507812 190.265625 C 150.527344 190.09375 150.542969 189.921875 150.554688 189.75 C 150.5625 189.578125 150.566406 189.40625 150.566406 189.234375 C 150.5625 189.0625 150.554688 188.890625 150.542969 188.71875 C 150.527344 188.546875 150.507812 188.375 150.480469 188.203125 C 150.1875 186.347656 149.128906 184.578125 147.597656 183.476562 C 146.183594 182.457031 144.492188 182.097656 142.777344 182.363281 C 142.671875 182.378906 142.570312 182.398438 142.464844 182.421875 C 142.359375 182.441406 142.257812 182.464844 142.152344 182.492188 C 142.050781 182.519531 141.949219 182.546875 141.847656 182.582031 C 141.746094 182.613281 141.644531 182.644531 141.546875 182.683594 C 141.445312 182.71875 141.347656 182.757812 141.25 182.800781 C 141.152344 182.84375 141.054688 182.886719 140.960938 182.933594 C 140.863281 182.980469 140.769531 183.03125 140.675781 183.082031 C 140.585938 183.132812 140.492188 183.1875 140.402344 183.246094 C 140.3125 183.300781 140.222656 183.359375 140.136719 183.421875 C 140.050781 183.480469 139.964844 183.542969 139.878906 183.609375 C 139.796875 183.675781 139.714844 183.742188 139.632812 183.8125 C 139.550781 183.878906 139.472656 183.953125 139.394531 184.023438 C 139.320312 184.097656 139.246094 184.171875 139.171875 184.25 C 139.097656 184.328125 139.027344 184.40625 138.957031 184.488281 C 138.886719 184.566406 138.820312 184.652344 138.757812 184.734375 C 138.691406 184.820312 138.628906 184.90625 138.570312 184.992188 C 137.324219 186.773438 137.3125 188.65625 137.664062 190.695312 C 135.324219 191.136719 133.011719 191.753906 130.683594 192.25 C 124.816406 193.527344 118.925781 194.6875 113.015625 195.730469 C 110.816406 196.117188 108.613281 196.457031 106.402344 196.757812 C 104.191406 197.054688 101.976562 197.308594 99.753906 197.519531 C 97.535156 197.730469 95.308594 197.898438 93.082031 198.023438 C 90.855469 198.144531 88.625 198.222656 86.394531 198.257812 C 84.164062 198.292969 81.933594 198.285156 79.703125 198.230469 C 77.472656 198.175781 75.246094 198.078125 73.019531 197.9375 C 70.792969 197.796875 68.570312 197.609375 66.347656 197.382812 C 64.128906 197.152344 61.917969 196.878906 59.707031 196.5625 C 55.046875 195.890625 50.386719 195.136719 45.832031 193.910156 C 44.523438 193.558594 43.246094 193.085938 41.953125 192.6875 C 40.023438 188.882812 37.980469 184.914062 36.667969 180.847656 C 51.644531 185.191406 66.609375 187.53125 82.234375 186.996094 C 97.269531 186.484375 112.558594 183.25 127.128906 179.628906 C 133.867188 178.023438 140.570312 176.261719 147.226562 174.347656 C 153.886719 172.429688 160.5 170.363281 167.066406 168.144531 C 173.183594 165.964844 179.25 163.652344 185.265625 161.203125 C 199.929688 155.332031 214.394531 148.992188 228.648438 142.1875 C 237.261719 138.140625 246.023438 134.277344 254.421875 129.792969 Z M 254.421875 129.792969 " fill-opacity="1" fill-rule="nonzero"/><path fill="#03346e" d="M 211.160156 160.742188 C 211.265625 160.722656 211.375 160.710938 211.480469 160.699219 C 211.589844 160.6875 211.695312 160.675781 211.804688 160.671875 C 211.914062 160.664062 212.019531 160.660156 212.128906 160.660156 C 212.238281 160.65625 212.34375 160.660156 212.453125 160.664062 C 212.5625 160.667969 212.667969 160.675781 212.777344 160.683594 C 212.882812 160.695312 212.992188 160.707031 213.097656 160.71875 C 213.207031 160.734375 213.3125 160.753906 213.417969 160.773438 C 213.523438 160.792969 213.628906 160.816406 213.734375 160.839844 C 213.839844 160.867188 213.945312 160.894531 214.050781 160.921875 C 214.152344 160.953125 214.257812 160.988281 214.359375 161.023438 C 214.460938 161.058594 214.5625 161.09375 214.660156 161.136719 C 214.761719 161.175781 214.859375 161.21875 214.960938 161.265625 C 215.058594 161.308594 215.15625 161.355469 215.25 161.40625 C 215.347656 161.457031 215.441406 161.507812 215.535156 161.5625 C 215.628906 161.617188 215.71875 161.675781 215.808594 161.734375 C 215.902344 161.792969 215.988281 161.855469 216.078125 161.917969 C 216.164062 161.980469 216.25 162.046875 216.335938 162.117188 C 216.417969 162.183594 216.5 162.253906 216.582031 162.324219 C 216.664062 162.398438 216.742188 162.46875 216.820312 162.546875 C 216.898438 162.621094 216.972656 162.699219 217.046875 162.777344 C 217.117188 162.859375 217.191406 162.9375 217.257812 163.023438 C 217.328125 163.105469 217.398438 163.191406 217.460938 163.277344 C 217.527344 163.363281 217.589844 163.449219 217.652344 163.539062 C 217.710938 163.628906 217.769531 163.71875 217.828125 163.8125 C 217.882812 163.902344 217.9375 163.996094 217.988281 164.09375 C 218.042969 164.1875 218.089844 164.28125 218.136719 164.378906 C 218.1875 164.476562 218.230469 164.574219 218.273438 164.675781 C 218.316406 164.773438 218.355469 164.875 218.394531 164.976562 C 218.429688 165.078125 218.464844 165.179688 218.496094 165.285156 C 218.53125 165.386719 218.558594 165.492188 218.585938 165.59375 C 218.613281 165.699219 218.640625 165.804688 218.660156 165.910156 C 218.683594 166.015625 218.703125 166.121094 218.71875 166.230469 C 218.738281 166.335938 218.75 166.445312 218.761719 166.550781 C 218.773438 166.660156 218.785156 166.765625 218.789062 166.875 C 218.796875 166.980469 218.800781 167.089844 218.800781 167.199219 C 218.800781 167.304688 218.800781 167.414062 218.796875 167.523438 C 218.792969 167.628906 218.785156 167.738281 218.773438 167.847656 C 218.765625 167.953125 218.753906 168.0625 218.738281 168.167969 C 218.722656 168.277344 218.707031 168.382812 218.6875 168.488281 C 218.667969 168.59375 218.644531 168.699219 218.617188 168.804688 C 218.59375 168.910156 218.566406 169.015625 218.535156 169.117188 C 218.503906 169.222656 218.472656 169.324219 218.4375 169.425781 C 218.402344 169.53125 218.363281 169.632812 218.324219 169.730469 C 218.28125 169.832031 218.238281 169.929688 218.195312 170.027344 C 218.148438 170.128906 218.101562 170.222656 218.050781 170.320312 C 218 170.414062 217.949219 170.511719 217.894531 170.605469 C 217.839844 170.695312 217.78125 170.789062 217.722656 170.878906 C 217.664062 170.96875 217.601562 171.058594 217.539062 171.144531 C 217.476562 171.234375 217.410156 171.320312 217.339844 171.402344 C 217.273438 171.488281 217.203125 171.570312 217.132812 171.652344 C 217.058594 171.730469 216.988281 171.8125 216.910156 171.886719 C 216.835938 171.964844 216.757812 172.039062 216.679688 172.113281 C 216.597656 172.1875 216.515625 172.257812 216.433594 172.328125 C 216.351562 172.398438 216.265625 172.464844 216.179688 172.53125 C 216.09375 172.59375 216.007812 172.660156 215.917969 172.71875 C 215.828125 172.78125 215.738281 172.839844 215.644531 172.894531 C 215.554688 172.953125 215.460938 173.007812 215.363281 173.058594 C 215.269531 173.109375 215.171875 173.160156 215.074219 173.207031 C 214.980469 173.253906 214.878906 173.296875 214.78125 173.339844 C 214.679688 173.382812 214.582031 173.421875 214.480469 173.460938 C 214.378906 173.496094 214.277344 173.53125 214.171875 173.566406 C 214.070312 173.597656 213.964844 173.625 213.859375 173.652344 C 213.757812 173.679688 213.652344 173.707031 213.546875 173.726562 C 213.4375 173.75 213.332031 173.769531 213.226562 173.785156 C 213.121094 173.804688 213.011719 173.816406 212.90625 173.828125 C 212.796875 173.839844 212.691406 173.847656 212.582031 173.855469 C 212.472656 173.863281 212.367188 173.867188 212.257812 173.867188 C 212.148438 173.867188 212.042969 173.867188 211.933594 173.863281 C 211.828125 173.859375 211.71875 173.851562 211.609375 173.839844 C 211.503906 173.832031 211.394531 173.820312 211.289062 173.804688 C 211.183594 173.789062 211.074219 173.773438 210.96875 173.75 C 210.863281 173.730469 210.757812 173.710938 210.652344 173.683594 C 210.546875 173.660156 210.441406 173.632812 210.339844 173.601562 C 210.234375 173.570312 210.132812 173.539062 210.03125 173.5 C 209.929688 173.464844 209.828125 173.429688 209.726562 173.386719 C 209.625 173.347656 209.527344 173.304688 209.429688 173.257812 C 209.332031 173.214844 209.234375 173.167969 209.136719 173.117188 C 209.042969 173.066406 208.949219 173.015625 208.855469 172.960938 C 208.761719 172.90625 208.671875 172.847656 208.578125 172.789062 C 208.488281 172.730469 208.402344 172.667969 208.3125 172.605469 C 208.226562 172.542969 208.140625 172.476562 208.054688 172.40625 C 207.972656 172.339844 207.890625 172.269531 207.808594 172.199219 C 207.726562 172.125 207.648438 172.054688 207.570312 171.976562 C 207.496094 171.902344 207.417969 171.824219 207.347656 171.746094 C 207.273438 171.664062 207.203125 171.585938 207.132812 171.5 C 207.0625 171.417969 206.996094 171.335938 206.929688 171.246094 C 206.863281 171.160156 206.800781 171.074219 206.742188 170.984375 C 206.679688 170.894531 206.621094 170.804688 206.566406 170.710938 C 206.507812 170.621094 206.453125 170.527344 206.402344 170.433594 C 206.351562 170.335938 206.300781 170.242188 206.253906 170.144531 C 206.207031 170.046875 206.160156 169.949219 206.121094 169.847656 C 206.078125 169.75 206.039062 169.648438 206 169.546875 C 205.964844 169.445312 205.929688 169.34375 205.894531 169.242188 C 205.863281 169.136719 205.832031 169.035156 205.804688 168.929688 C 205.777344 168.824219 205.753906 168.71875 205.730469 168.613281 C 205.710938 168.507812 205.691406 168.402344 205.671875 168.296875 C 205.65625 168.1875 205.640625 168.082031 205.628906 167.976562 C 205.617188 167.867188 205.609375 167.757812 205.605469 167.652344 C 205.597656 167.542969 205.59375 167.4375 205.59375 167.328125 C 205.589844 167.21875 205.59375 167.113281 205.597656 167.003906 C 205.601562 166.894531 205.609375 166.789062 205.617188 166.679688 C 205.628906 166.574219 205.640625 166.464844 205.65625 166.359375 C 205.667969 166.25 205.6875 166.144531 205.707031 166.039062 C 205.726562 165.933594 205.75 165.828125 205.773438 165.722656 C 205.800781 165.617188 205.828125 165.511719 205.859375 165.410156 C 205.886719 165.304688 205.921875 165.203125 205.957031 165.101562 C 205.992188 164.996094 206.03125 164.898438 206.070312 164.796875 C 206.109375 164.695312 206.152344 164.597656 206.199219 164.5 C 206.242188 164.402344 206.292969 164.304688 206.339844 164.207031 C 206.390625 164.113281 206.445312 164.019531 206.5 163.925781 C 206.550781 163.832031 206.609375 163.738281 206.667969 163.648438 C 206.726562 163.558594 206.789062 163.46875 206.851562 163.382812 C 206.914062 163.296875 206.980469 163.210938 207.050781 163.125 C 207.117188 163.039062 207.1875 162.957031 207.257812 162.878906 C 207.332031 162.796875 207.402344 162.71875 207.480469 162.640625 C 207.554688 162.5625 207.632812 162.488281 207.710938 162.414062 C 207.792969 162.339844 207.871094 162.269531 207.957031 162.199219 C 208.039062 162.132812 208.121094 162.0625 208.207031 162 C 208.292969 161.933594 208.382812 161.871094 208.472656 161.808594 C 208.5625 161.75 208.652344 161.691406 208.742188 161.632812 C 208.835938 161.578125 208.929688 161.523438 209.023438 161.46875 C 209.117188 161.417969 209.214844 161.371094 209.3125 161.320312 C 209.410156 161.273438 209.507812 161.230469 209.605469 161.1875 C 209.707031 161.144531 209.804688 161.105469 209.90625 161.066406 C 210.007812 161.03125 210.113281 160.996094 210.214844 160.964844 C 210.316406 160.929688 210.421875 160.902344 210.527344 160.875 C 210.628906 160.847656 210.734375 160.820312 210.839844 160.800781 C 210.945312 160.777344 211.054688 160.757812 211.160156 160.742188 Z M 211.160156 160.742188 " fill-opacity="1" fill-rule="nonzero"/><path fill="#ffffff" d="M 211.84375 162.949219 C 211.914062 162.945312 211.984375 162.941406 212.054688 162.941406 C 212.125 162.9375 212.195312 162.9375 212.265625 162.941406 C 212.335938 162.941406 212.40625 162.945312 212.476562 162.953125 C 212.546875 162.957031 212.617188 162.964844 212.6875 162.972656 C 212.757812 162.980469 212.824219 162.992188 212.894531 163.003906 C 212.964844 163.015625 213.03125 163.03125 213.101562 163.046875 C 213.167969 163.0625 213.238281 163.078125 213.304688 163.097656 C 213.375 163.117188 213.441406 163.136719 213.507812 163.160156 C 213.574219 163.183594 213.640625 163.207031 213.707031 163.230469 C 213.769531 163.257812 213.835938 163.285156 213.898438 163.3125 C 213.964844 163.34375 214.027344 163.371094 214.089844 163.402344 C 214.152344 163.4375 214.214844 163.46875 214.277344 163.503906 C 214.335938 163.539062 214.398438 163.574219 214.457031 163.613281 C 214.515625 163.652344 214.574219 163.691406 214.632812 163.730469 C 214.6875 163.773438 214.746094 163.8125 214.800781 163.859375 C 214.855469 163.902344 214.910156 163.945312 214.960938 163.992188 C 215.015625 164.039062 215.066406 164.085938 215.117188 164.132812 C 215.167969 164.183594 215.21875 164.234375 215.265625 164.285156 C 215.3125 164.335938 215.363281 164.386719 215.40625 164.441406 C 215.453125 164.496094 215.496094 164.550781 215.539062 164.605469 C 215.582031 164.660156 215.625 164.71875 215.664062 164.773438 C 215.703125 164.832031 215.742188 164.890625 215.78125 164.949219 C 215.816406 165.011719 215.855469 165.070312 215.886719 165.132812 C 215.921875 165.195312 215.957031 165.253906 215.988281 165.320312 C 216.019531 165.382812 216.046875 165.445312 216.074219 165.507812 C 216.101562 165.574219 216.128906 165.640625 216.15625 165.707031 C 216.179688 165.769531 216.203125 165.835938 216.226562 165.902344 C 216.246094 165.972656 216.265625 166.039062 216.285156 166.105469 C 216.304688 166.175781 216.320312 166.242188 216.335938 166.3125 C 216.347656 166.378906 216.363281 166.449219 216.375 166.519531 C 216.386719 166.585938 216.394531 166.65625 216.402344 166.726562 C 216.410156 166.796875 216.417969 166.867188 216.421875 166.9375 C 216.425781 167.007812 216.429688 167.078125 216.433594 167.148438 C 216.433594 167.21875 216.433594 167.289062 216.429688 167.359375 C 216.429688 167.429688 216.425781 167.5 216.417969 167.570312 C 216.414062 167.640625 216.40625 167.707031 216.394531 167.777344 C 216.386719 167.847656 216.375 167.917969 216.363281 167.988281 C 216.351562 168.054688 216.335938 168.125 216.320312 168.191406 C 216.304688 168.261719 216.289062 168.328125 216.269531 168.398438 C 216.25 168.464844 216.226562 168.53125 216.203125 168.597656 C 216.183594 168.664062 216.15625 168.730469 216.132812 168.796875 C 216.105469 168.863281 216.078125 168.925781 216.050781 168.992188 C 216.019531 169.054688 215.988281 169.117188 215.957031 169.179688 C 215.925781 169.242188 215.890625 169.304688 215.855469 169.367188 C 215.820312 169.425781 215.785156 169.484375 215.746094 169.546875 C 215.707031 169.605469 215.667969 169.664062 215.628906 169.71875 C 215.585938 169.777344 215.542969 169.832031 215.5 169.886719 C 215.457031 169.941406 215.410156 169.996094 215.367188 170.050781 C 215.320312 170.101562 215.269531 170.152344 215.222656 170.203125 C 215.171875 170.253906 215.125 170.304688 215.070312 170.351562 C 215.019531 170.398438 214.96875 170.445312 214.914062 170.492188 C 214.859375 170.535156 214.804688 170.582031 214.75 170.625 C 214.695312 170.667969 214.636719 170.707031 214.578125 170.746094 C 214.519531 170.789062 214.460938 170.824219 214.402344 170.863281 C 214.34375 170.898438 214.28125 170.933594 214.222656 170.96875 C 214.160156 171.003906 214.097656 171.035156 214.035156 171.066406 C 213.96875 171.097656 213.90625 171.125 213.84375 171.15625 C 213.777344 171.183594 213.710938 171.207031 213.648438 171.234375 C 213.582031 171.257812 213.515625 171.28125 213.445312 171.300781 C 213.378906 171.324219 213.3125 171.34375 213.246094 171.359375 C 213.175781 171.378906 213.109375 171.394531 213.039062 171.410156 C 212.972656 171.425781 212.902344 171.4375 212.832031 171.449219 C 212.761719 171.460938 212.695312 171.46875 212.625 171.476562 C 212.554688 171.484375 212.484375 171.492188 212.414062 171.496094 C 212.34375 171.5 212.273438 171.5 212.203125 171.503906 C 212.132812 171.503906 212.066406 171.503906 211.996094 171.5 C 211.925781 171.496094 211.855469 171.492188 211.785156 171.488281 C 211.714844 171.480469 211.648438 171.472656 211.578125 171.464844 C 211.507812 171.453125 211.4375 171.445312 211.371094 171.429688 C 211.300781 171.417969 211.234375 171.402344 211.164062 171.386719 C 211.097656 171.371094 211.03125 171.355469 210.964844 171.335938 C 210.894531 171.316406 210.828125 171.292969 210.761719 171.273438 C 210.695312 171.25 210.632812 171.226562 210.566406 171.199219 C 210.503906 171.171875 210.4375 171.144531 210.375 171.117188 C 210.3125 171.085938 210.246094 171.058594 210.1875 171.023438 C 210.125 170.992188 210.0625 170.960938 210.003906 170.925781 C 209.941406 170.890625 209.882812 170.851562 209.824219 170.816406 C 209.765625 170.777344 209.707031 170.738281 209.652344 170.695312 C 209.59375 170.65625 209.539062 170.613281 209.484375 170.570312 C 209.429688 170.527344 209.375 170.480469 209.324219 170.4375 C 209.269531 170.390625 209.21875 170.34375 209.167969 170.292969 C 209.117188 170.246094 209.070312 170.195312 209.023438 170.144531 C 208.976562 170.09375 208.929688 170.042969 208.882812 169.988281 C 208.839844 169.933594 208.792969 169.878906 208.75 169.824219 C 208.710938 169.769531 208.667969 169.710938 208.628906 169.65625 C 208.589844 169.597656 208.550781 169.539062 208.511719 169.480469 C 208.476562 169.421875 208.441406 169.359375 208.40625 169.300781 C 208.375 169.238281 208.339844 169.175781 208.308594 169.113281 C 208.28125 169.050781 208.25 168.988281 208.222656 168.925781 C 208.195312 168.859375 208.167969 168.796875 208.144531 168.730469 C 208.121094 168.664062 208.097656 168.597656 208.074219 168.53125 C 208.054688 168.464844 208.035156 168.398438 208.015625 168.332031 C 207.996094 168.261719 207.980469 168.195312 207.964844 168.128906 C 207.953125 168.058594 207.9375 167.992188 207.925781 167.921875 C 207.914062 167.851562 207.90625 167.785156 207.898438 167.714844 C 207.890625 167.644531 207.882812 167.574219 207.878906 167.507812 C 207.875 167.4375 207.871094 167.367188 207.871094 167.296875 C 207.867188 167.226562 207.867188 167.15625 207.871094 167.085938 C 207.875 167.015625 207.878906 166.949219 207.882812 166.878906 C 207.886719 166.808594 207.894531 166.738281 207.90625 166.667969 C 207.914062 166.601562 207.925781 166.53125 207.9375 166.460938 C 207.949219 166.394531 207.964844 166.324219 207.980469 166.257812 C 207.996094 166.191406 208.011719 166.121094 208.03125 166.054688 C 208.050781 165.988281 208.070312 165.921875 208.09375 165.855469 C 208.117188 165.789062 208.140625 165.722656 208.164062 165.65625 C 208.191406 165.59375 208.21875 165.527344 208.246094 165.464844 C 208.273438 165.402344 208.304688 165.339844 208.335938 165.277344 C 208.367188 165.214844 208.402344 165.152344 208.4375 165.089844 C 208.472656 165.03125 208.507812 164.972656 208.546875 164.914062 C 208.582031 164.855469 208.621094 164.796875 208.664062 164.738281 C 208.703125 164.683594 208.746094 164.625 208.789062 164.570312 C 208.832031 164.515625 208.875 164.460938 208.921875 164.410156 C 208.96875 164.355469 209.015625 164.304688 209.0625 164.253906 C 209.109375 164.207031 209.160156 164.15625 209.210938 164.109375 C 209.261719 164.058594 209.3125 164.011719 209.367188 163.96875 C 209.421875 163.921875 209.476562 163.878906 209.53125 163.835938 C 209.585938 163.792969 209.640625 163.75 209.699219 163.710938 C 209.757812 163.671875 209.8125 163.632812 209.875 163.597656 C 209.933594 163.558594 209.992188 163.523438 210.054688 163.488281 C 210.113281 163.453125 210.175781 163.421875 210.238281 163.390625 C 210.300781 163.359375 210.363281 163.328125 210.429688 163.300781 C 210.492188 163.273438 210.554688 163.246094 210.621094 163.222656 C 210.6875 163.195312 210.753906 163.175781 210.820312 163.152344 C 210.886719 163.128906 210.953125 163.109375 211.019531 163.09375 C 211.085938 163.074219 211.15625 163.054688 211.222656 163.042969 C 211.292969 163.027344 211.359375 163.011719 211.429688 163 C 211.496094 162.988281 211.566406 162.980469 211.636719 162.972656 C 211.707031 162.960938 211.773438 162.957031 211.84375 162.949219 Z M 211.84375 162.949219 " fill-opacity="1" fill-rule="nonzero"/><path fill="#03346e" d="M 239.367188 149.339844 C 239.472656 149.328125 239.578125 149.316406 239.6875 149.3125 C 239.796875 149.304688 239.902344 149.300781 240.011719 149.300781 C 240.117188 149.296875 240.226562 149.296875 240.332031 149.300781 C 240.441406 149.304688 240.550781 149.3125 240.65625 149.324219 C 240.761719 149.332031 240.871094 149.34375 240.976562 149.359375 C 241.085938 149.371094 241.191406 149.390625 241.296875 149.410156 C 241.402344 149.429688 241.507812 149.449219 241.613281 149.476562 C 241.71875 149.5 241.820312 149.527344 241.925781 149.558594 C 242.027344 149.589844 242.132812 149.621094 242.234375 149.65625 C 242.335938 149.691406 242.4375 149.730469 242.535156 149.769531 C 242.636719 149.808594 242.734375 149.851562 242.835938 149.894531 C 242.933594 149.941406 243.027344 149.988281 243.125 150.039062 C 243.21875 150.085938 243.316406 150.140625 243.40625 150.195312 C 243.5 150.246094 243.59375 150.304688 243.683594 150.363281 C 243.773438 150.421875 243.863281 150.484375 243.949219 150.546875 C 244.035156 150.609375 244.121094 150.675781 244.207031 150.742188 C 244.292969 150.808594 244.375 150.878906 244.453125 150.949219 C 244.535156 151.019531 244.613281 151.09375 244.691406 151.171875 C 244.769531 151.246094 244.84375 151.324219 244.917969 151.402344 C 244.988281 151.480469 245.0625 151.5625 245.132812 151.644531 C 245.199219 151.726562 245.269531 151.808594 245.332031 151.894531 C 245.398438 151.980469 245.460938 152.070312 245.523438 152.160156 C 245.582031 152.246094 245.640625 152.335938 245.699219 152.429688 C 245.753906 152.519531 245.808594 152.613281 245.859375 152.707031 C 245.914062 152.804688 245.960938 152.898438 246.007812 152.996094 C 246.058594 153.09375 246.101562 153.191406 246.144531 153.289062 C 246.1875 153.390625 246.226562 153.488281 246.265625 153.589844 C 246.300781 153.691406 246.335938 153.792969 246.367188 153.894531 C 246.402344 154 246.429688 154.101562 246.457031 154.207031 C 246.484375 154.308594 246.511719 154.414062 246.53125 154.519531 C 246.554688 154.625 246.574219 154.730469 246.59375 154.839844 C 246.609375 154.945312 246.625 155.050781 246.636719 155.160156 C 246.648438 155.265625 246.65625 155.375 246.664062 155.480469 C 246.667969 155.589844 246.671875 155.695312 246.675781 155.804688 C 246.675781 155.910156 246.675781 156.019531 246.671875 156.128906 C 246.667969 156.234375 246.660156 156.34375 246.648438 156.449219 C 246.640625 156.558594 246.628906 156.664062 246.613281 156.769531 C 246.597656 156.878906 246.582031 156.984375 246.5625 157.089844 C 246.542969 157.195312 246.519531 157.300781 246.496094 157.40625 C 246.46875 157.511719 246.441406 157.617188 246.414062 157.71875 C 246.382812 157.824219 246.347656 157.925781 246.3125 158.027344 C 246.277344 158.128906 246.242188 158.230469 246.203125 158.332031 C 246.160156 158.429688 246.117188 158.527344 246.074219 158.628906 C 246.027344 158.726562 245.980469 158.820312 245.929688 158.917969 C 245.882812 159.011719 245.828125 159.109375 245.773438 159.199219 C 245.71875 159.292969 245.664062 159.386719 245.605469 159.476562 C 245.546875 159.566406 245.484375 159.65625 245.421875 159.742188 C 245.359375 159.828125 245.292969 159.914062 245.226562 160 C 245.15625 160.082031 245.089844 160.164062 245.015625 160.246094 C 244.945312 160.328125 244.871094 160.40625 244.796875 160.484375 C 244.722656 160.558594 244.644531 160.632812 244.566406 160.707031 C 244.484375 160.78125 244.40625 160.851562 244.324219 160.921875 C 244.238281 160.992188 244.15625 161.058594 244.070312 161.125 C 243.984375 161.1875 243.894531 161.25 243.808594 161.3125 C 243.71875 161.371094 243.628906 161.429688 243.535156 161.488281 C 243.445312 161.542969 243.351562 161.597656 243.257812 161.648438 C 243.160156 161.703125 243.066406 161.75 242.96875 161.796875 C 242.871094 161.84375 242.773438 161.890625 242.675781 161.933594 C 242.574219 161.976562 242.476562 162.015625 242.375 162.050781 C 242.273438 162.089844 242.171875 162.125 242.070312 162.15625 C 241.964844 162.1875 241.863281 162.21875 241.757812 162.246094 C 241.652344 162.273438 241.546875 162.296875 241.441406 162.320312 C 241.335938 162.34375 241.230469 162.359375 241.125 162.378906 C 241.019531 162.394531 240.914062 162.410156 240.804688 162.421875 C 240.699219 162.433594 240.589844 162.441406 240.484375 162.449219 C 240.375 162.453125 240.269531 162.457031 240.160156 162.460938 C 240.054688 162.460938 239.945312 162.457031 239.839844 162.453125 C 239.730469 162.449219 239.625 162.445312 239.515625 162.433594 C 239.410156 162.425781 239.300781 162.414062 239.195312 162.398438 C 239.089844 162.382812 238.984375 162.367188 238.878906 162.347656 C 238.769531 162.328125 238.667969 162.304688 238.5625 162.277344 C 238.457031 162.253906 238.351562 162.226562 238.25 162.195312 C 238.144531 162.164062 238.042969 162.132812 237.941406 162.097656 C 237.839844 162.0625 237.738281 162.023438 237.640625 161.984375 C 237.539062 161.945312 237.441406 161.902344 237.34375 161.855469 C 237.246094 161.8125 237.148438 161.765625 237.054688 161.714844 C 236.957031 161.664062 236.863281 161.613281 236.769531 161.558594 C 236.679688 161.503906 236.585938 161.449219 236.496094 161.390625 C 236.40625 161.332031 236.316406 161.269531 236.230469 161.207031 C 236.144531 161.144531 236.058594 161.078125 235.972656 161.011719 C 235.890625 160.941406 235.808594 160.875 235.726562 160.800781 C 235.648438 160.730469 235.570312 160.65625 235.492188 160.582031 C 235.414062 160.507812 235.339844 160.429688 235.265625 160.351562 C 235.195312 160.273438 235.121094 160.191406 235.054688 160.109375 C 234.984375 160.027344 234.917969 159.941406 234.851562 159.855469 C 234.785156 159.769531 234.722656 159.683594 234.664062 159.59375 C 234.601562 159.507812 234.542969 159.414062 234.488281 159.324219 C 234.429688 159.234375 234.378906 159.140625 234.324219 159.046875 C 234.273438 158.949219 234.222656 158.855469 234.175781 158.757812 C 234.128906 158.660156 234.085938 158.5625 234.042969 158.464844 C 234 158.367188 233.960938 158.265625 233.921875 158.164062 C 233.886719 158.0625 233.851562 157.960938 233.820312 157.859375 C 233.785156 157.757812 233.757812 157.652344 233.730469 157.550781 C 233.703125 157.445312 233.675781 157.339844 233.65625 157.234375 C 233.632812 157.128906 233.613281 157.023438 233.597656 156.917969 C 233.578125 156.8125 233.566406 156.707031 233.554688 156.597656 C 233.542969 156.492188 233.53125 156.382812 233.527344 156.277344 C 233.519531 156.167969 233.515625 156.0625 233.515625 155.953125 C 233.511719 155.847656 233.515625 155.738281 233.519531 155.632812 C 233.523438 155.523438 233.527344 155.417969 233.539062 155.308594 C 233.546875 155.203125 233.558594 155.097656 233.574219 154.988281 C 233.589844 154.882812 233.605469 154.777344 233.625 154.671875 C 233.644531 154.566406 233.667969 154.460938 233.691406 154.355469 C 233.71875 154.25 233.746094 154.144531 233.773438 154.042969 C 233.804688 153.941406 233.835938 153.835938 233.871094 153.734375 C 233.90625 153.632812 233.945312 153.53125 233.984375 153.433594 C 234.023438 153.332031 234.066406 153.234375 234.113281 153.136719 C 234.15625 153.039062 234.203125 152.941406 234.253906 152.847656 C 234.304688 152.75 234.355469 152.65625 234.410156 152.5625 C 234.464844 152.472656 234.519531 152.378906 234.578125 152.289062 C 234.636719 152.199219 234.699219 152.109375 234.761719 152.023438 C 234.824219 151.9375 234.890625 151.851562 234.957031 151.765625 C 235.023438 151.683594 235.09375 151.601562 235.164062 151.519531 C 235.234375 151.4375 235.308594 151.359375 235.382812 151.28125 C 235.460938 151.207031 235.535156 151.128906 235.617188 151.058594 C 235.695312 150.984375 235.773438 150.914062 235.855469 150.84375 C 235.941406 150.773438 236.023438 150.707031 236.109375 150.640625 C 236.195312 150.578125 236.28125 150.515625 236.371094 150.453125 C 236.460938 150.390625 236.550781 150.332031 236.640625 150.277344 C 236.734375 150.21875 236.824219 150.167969 236.921875 150.113281 C 237.015625 150.0625 237.109375 150.011719 237.207031 149.964844 C 237.304688 149.917969 237.402344 149.875 237.5 149.832031 C 237.597656 149.789062 237.699219 149.75 237.800781 149.710938 C 237.898438 149.671875 238 149.640625 238.105469 149.605469 C 238.207031 149.574219 238.308594 149.542969 238.414062 149.515625 C 238.519531 149.488281 238.625 149.464844 238.726562 149.441406 C 238.832031 149.417969 238.9375 149.398438 239.046875 149.382812 C 239.152344 149.363281 239.257812 149.351562 239.367188 149.339844 Z M 239.367188 149.339844 " fill-opacity="1" fill-rule="nonzero"/><path fill="#ffffff" d="M 239.652344 151.585938 C 239.71875 151.578125 239.789062 151.574219 239.855469 151.570312 C 239.925781 151.566406 239.992188 151.5625 240.0625 151.5625 C 240.128906 151.558594 240.199219 151.5625 240.265625 151.5625 C 240.335938 151.566406 240.402344 151.570312 240.472656 151.574219 C 240.539062 151.582031 240.609375 151.589844 240.675781 151.597656 C 240.746094 151.605469 240.8125 151.617188 240.878906 151.628906 C 240.945312 151.640625 241.015625 151.65625 241.082031 151.671875 C 241.148438 151.6875 241.214844 151.703125 241.277344 151.722656 C 241.34375 151.742188 241.410156 151.761719 241.476562 151.785156 C 241.539062 151.804688 241.605469 151.832031 241.667969 151.855469 C 241.730469 151.878906 241.796875 151.90625 241.859375 151.933594 C 241.917969 151.964844 241.980469 151.992188 242.042969 152.023438 C 242.105469 152.054688 242.164062 152.089844 242.222656 152.121094 C 242.28125 152.15625 242.339844 152.191406 242.398438 152.230469 C 242.457031 152.265625 242.511719 152.304688 242.570312 152.34375 C 242.625 152.382812 242.679688 152.425781 242.734375 152.46875 C 242.785156 152.511719 242.839844 152.554688 242.890625 152.597656 C 242.941406 152.644531 242.992188 152.691406 243.042969 152.738281 C 243.09375 152.785156 243.140625 152.835938 243.1875 152.882812 C 243.234375 152.933594 243.28125 152.984375 243.324219 153.039062 C 243.371094 153.089844 243.414062 153.140625 243.453125 153.195312 C 243.496094 153.25 243.535156 153.304688 243.578125 153.363281 C 243.617188 153.417969 243.652344 153.476562 243.691406 153.53125 C 243.726562 153.589844 243.761719 153.648438 243.796875 153.710938 C 243.828125 153.769531 243.859375 153.828125 243.890625 153.890625 C 243.921875 153.953125 243.949219 154.015625 243.980469 154.078125 C 244.007812 154.140625 244.03125 154.203125 244.058594 154.265625 C 244.082031 154.332031 244.105469 154.394531 244.125 154.460938 C 244.148438 154.527344 244.167969 154.589844 244.183594 154.65625 C 244.203125 154.722656 244.21875 154.789062 244.234375 154.855469 C 244.25 154.921875 244.261719 154.992188 244.273438 155.058594 C 244.285156 155.125 244.296875 155.195312 244.304688 155.261719 C 244.3125 155.328125 244.320312 155.398438 244.324219 155.464844 C 244.332031 155.535156 244.335938 155.601562 244.335938 155.671875 C 244.335938 155.738281 244.335938 155.808594 244.335938 155.875 C 244.335938 155.945312 244.332031 156.011719 244.328125 156.082031 C 244.320312 156.148438 244.316406 156.21875 244.304688 156.285156 C 244.296875 156.355469 244.289062 156.421875 244.277344 156.488281 C 244.265625 156.558594 244.253906 156.625 244.238281 156.691406 C 244.222656 156.757812 244.207031 156.824219 244.1875 156.890625 C 244.167969 156.957031 244.148438 157.023438 244.128906 157.085938 C 244.109375 157.152344 244.085938 157.21875 244.058594 157.28125 C 244.035156 157.34375 244.011719 157.410156 243.984375 157.472656 C 243.957031 157.535156 243.925781 157.597656 243.894531 157.65625 C 243.863281 157.71875 243.832031 157.78125 243.800781 157.839844 C 243.765625 157.898438 243.730469 157.957031 243.695312 158.015625 C 243.660156 158.074219 243.621094 158.132812 243.582031 158.1875 C 243.542969 158.242188 243.5 158.300781 243.460938 158.351562 C 243.417969 158.40625 243.375 158.460938 243.332031 158.511719 C 243.285156 158.566406 243.242188 158.617188 243.195312 158.664062 C 243.148438 158.714844 243.097656 158.765625 243.050781 158.8125 C 243 158.859375 242.949219 158.90625 242.898438 158.953125 C 242.847656 158.996094 242.792969 159.039062 242.742188 159.082031 C 242.6875 159.125 242.632812 159.167969 242.578125 159.207031 C 242.519531 159.246094 242.464844 159.285156 242.40625 159.324219 C 242.347656 159.359375 242.289062 159.394531 242.230469 159.429688 C 242.171875 159.464844 242.113281 159.496094 242.050781 159.527344 C 241.988281 159.558594 241.929688 159.589844 241.867188 159.617188 C 241.804688 159.644531 241.742188 159.671875 241.675781 159.699219 C 241.613281 159.722656 241.550781 159.746094 241.484375 159.769531 C 241.417969 159.792969 241.355469 159.8125 241.289062 159.832031 C 241.222656 159.851562 241.15625 159.867188 241.089844 159.882812 C 241.023438 159.898438 240.957031 159.914062 240.886719 159.925781 C 240.820312 159.9375 240.753906 159.949219 240.6875 159.957031 C 240.59375 159.96875 240.5 159.980469 240.410156 159.988281 C 240.316406 159.992188 240.222656 159.996094 240.132812 159.996094 C 240.039062 159.996094 239.945312 159.992188 239.851562 159.988281 C 239.761719 159.980469 239.667969 159.972656 239.578125 159.960938 C 239.484375 159.949219 239.394531 159.933594 239.300781 159.917969 C 239.210938 159.898438 239.121094 159.878906 239.03125 159.851562 C 238.941406 159.828125 238.851562 159.804688 238.765625 159.773438 C 238.675781 159.742188 238.589844 159.710938 238.503906 159.675781 C 238.417969 159.640625 238.335938 159.601562 238.25 159.558594 C 238.167969 159.519531 238.085938 159.476562 238.007812 159.429688 C 237.925781 159.382812 237.847656 159.332031 237.769531 159.28125 C 237.691406 159.230469 237.617188 159.175781 237.542969 159.121094 C 237.472656 159.0625 237.398438 159.003906 237.332031 158.941406 C 237.261719 158.882812 237.191406 158.816406 237.128906 158.753906 C 237.0625 158.6875 237 158.617188 236.9375 158.546875 C 236.878906 158.476562 236.820312 158.40625 236.761719 158.332031 C 236.707031 158.257812 236.652344 158.183594 236.601562 158.105469 C 236.550781 158.027344 236.503906 157.949219 236.457031 157.867188 C 236.410156 157.789062 236.367188 157.707031 236.324219 157.625 C 236.285156 157.539062 236.246094 157.457031 236.210938 157.371094 C 236.179688 157.285156 236.144531 157.195312 236.117188 157.109375 C 236.085938 157.019531 236.0625 156.929688 236.039062 156.839844 C 236.015625 156.753906 235.992188 156.660156 235.976562 156.570312 C 235.957031 156.480469 235.945312 156.386719 235.933594 156.296875 C 235.921875 156.203125 235.914062 156.113281 235.90625 156.019531 C 235.902344 155.925781 235.902344 155.832031 235.902344 155.742188 C 235.902344 155.648438 235.90625 155.554688 235.914062 155.464844 C 235.921875 155.371094 235.929688 155.277344 235.941406 155.1875 C 235.957031 155.09375 235.972656 155.003906 235.992188 154.914062 C 236.011719 154.820312 236.03125 154.730469 236.058594 154.640625 C 236.082031 154.554688 236.109375 154.464844 236.140625 154.378906 C 236.171875 154.289062 236.207031 154.203125 236.242188 154.117188 C 236.277344 154.03125 236.316406 153.949219 236.359375 153.867188 C 236.402344 153.785156 236.445312 153.703125 236.492188 153.621094 C 236.542969 153.542969 236.589844 153.464844 236.644531 153.386719 C 236.695312 153.3125 236.75 153.238281 236.808594 153.164062 C 236.867188 153.09375 236.925781 153.019531 236.988281 152.953125 C 237.050781 152.882812 237.113281 152.816406 237.179688 152.753906 C 237.25 152.6875 237.316406 152.625 237.386719 152.566406 C 237.457031 152.503906 237.53125 152.449219 237.605469 152.390625 C 237.679688 152.335938 237.753906 152.285156 237.832031 152.234375 C 237.910156 152.183594 237.992188 152.136719 238.070312 152.089844 C 238.152344 152.046875 238.234375 152.003906 238.320312 151.964844 C 238.402344 151.925781 238.488281 151.886719 238.574219 151.855469 C 238.660156 151.820312 238.75 151.789062 238.835938 151.761719 C 238.925781 151.730469 239.015625 151.707031 239.105469 151.683594 C 239.195312 151.664062 239.285156 151.644531 239.375 151.625 C 239.46875 151.609375 239.558594 151.597656 239.652344 151.585938 Z M 239.652344 151.585938 " fill-opacity="1" fill-rule="nonzero"/><path fill="#03346e" d="M 175.890625 173.003906 C 175.960938 172.992188 176.03125 172.980469 176.101562 172.96875 C 176.171875 172.957031 176.242188 172.949219 176.3125 172.941406 C 176.382812 172.929688 176.457031 172.925781 176.527344 172.917969 C 176.597656 172.910156 176.667969 172.90625 176.738281 172.902344 C 176.8125 172.898438 176.882812 172.894531 176.953125 172.894531 C 177.023438 172.894531 177.097656 172.890625 177.167969 172.894531 C 177.238281 172.894531 177.3125 172.894531 177.382812 172.898438 C 177.453125 172.902344 177.523438 172.90625 177.597656 172.910156 C 177.667969 172.917969 177.738281 172.925781 177.808594 172.933594 C 177.878906 172.941406 177.949219 172.949219 178.023438 172.960938 C 178.09375 172.96875 178.164062 172.980469 178.234375 172.992188 C 178.304688 173.003906 178.375 173.019531 178.441406 173.035156 C 178.511719 173.050781 178.582031 173.066406 178.652344 173.082031 C 178.722656 173.097656 178.789062 173.117188 178.859375 173.136719 C 178.929688 173.15625 178.996094 173.175781 179.0625 173.199219 C 179.132812 173.21875 179.199219 173.242188 179.265625 173.265625 C 179.335938 173.289062 179.402344 173.316406 179.46875 173.339844 C 179.535156 173.367188 179.601562 173.394531 179.667969 173.421875 C 179.730469 173.453125 179.796875 173.480469 179.859375 173.511719 C 179.925781 173.542969 179.988281 173.574219 180.054688 173.605469 C 180.117188 173.636719 180.179688 173.671875 180.242188 173.707031 C 180.304688 173.742188 180.367188 173.777344 180.429688 173.8125 C 180.488281 173.847656 180.550781 173.886719 180.609375 173.925781 C 180.671875 173.964844 180.730469 174.003906 180.789062 174.042969 C 180.847656 174.085938 180.90625 174.125 180.960938 174.167969 C 181.019531 174.210938 181.078125 174.253906 181.132812 174.300781 C 181.1875 174.34375 181.242188 174.390625 181.296875 174.433594 C 181.351562 174.480469 181.40625 174.527344 181.460938 174.578125 C 181.511719 174.625 181.5625 174.671875 181.617188 174.722656 C 181.667969 174.773438 181.71875 174.824219 181.765625 174.875 C 181.816406 174.925781 181.867188 174.976562 181.914062 175.03125 C 181.960938 175.082031 182.007812 175.136719 182.054688 175.191406 C 182.101562 175.246094 182.144531 175.300781 182.191406 175.355469 C 182.234375 175.414062 182.277344 175.46875 182.320312 175.527344 C 182.363281 175.585938 182.402344 175.644531 182.445312 175.703125 C 182.484375 175.761719 182.523438 175.820312 182.5625 175.878906 C 182.601562 175.941406 182.640625 176 182.675781 176.0625 C 182.710938 176.125 182.75 176.183594 182.78125 176.246094 C 182.816406 176.308594 182.851562 176.375 182.882812 176.4375 C 182.914062 176.5 182.949219 176.566406 182.976562 176.628906 C 183.007812 176.695312 183.039062 176.757812 183.066406 176.824219 C 183.09375 176.890625 183.121094 176.957031 183.148438 177.023438 C 183.171875 177.089844 183.199219 177.15625 183.222656 177.222656 C 183.246094 177.289062 183.269531 177.359375 183.289062 177.425781 C 183.3125 177.496094 183.332031 177.5625 183.351562 177.632812 C 183.371094 177.699219 183.390625 177.769531 183.40625 177.839844 C 183.421875 177.90625 183.4375 177.976562 183.453125 178.046875 C 183.46875 178.117188 183.480469 178.1875 183.496094 178.257812 C 183.507812 178.328125 183.519531 178.398438 183.527344 178.46875 C 183.539062 178.539062 183.546875 178.609375 183.554688 178.679688 C 183.5625 178.753906 183.570312 178.824219 183.574219 178.894531 C 183.582031 178.964844 183.585938 179.035156 183.589844 179.109375 C 183.589844 179.179688 183.59375 179.25 183.59375 179.324219 C 183.59375 179.394531 183.59375 179.464844 183.59375 179.535156 C 183.589844 179.609375 183.589844 179.679688 183.585938 179.75 C 183.582031 179.820312 183.574219 179.894531 183.570312 179.964844 C 183.5625 180.035156 183.554688 180.105469 183.546875 180.175781 C 183.539062 180.25 183.527344 180.320312 183.519531 180.390625 C 183.507812 180.460938 183.496094 180.53125 183.480469 180.601562 C 183.46875 180.671875 183.453125 180.742188 183.4375 180.808594 C 183.421875 180.878906 183.40625 180.949219 183.386719 181.019531 C 183.371094 181.085938 183.351562 181.15625 183.332031 181.226562 C 183.3125 181.292969 183.289062 181.363281 183.265625 181.429688 C 183.246094 181.496094 183.222656 181.5625 183.195312 181.632812 C 183.171875 181.699219 183.148438 181.765625 183.121094 181.832031 C 183.09375 181.898438 183.066406 181.964844 183.035156 182.027344 C 183.007812 182.09375 182.976562 182.160156 182.945312 182.222656 C 182.914062 182.285156 182.882812 182.351562 182.851562 182.414062 C 182.816406 182.476562 182.78125 182.539062 182.746094 182.601562 C 182.710938 182.664062 182.675781 182.726562 182.636719 182.785156 C 182.601562 182.847656 182.5625 182.90625 182.523438 182.96875 C 182.484375 183.027344 182.445312 183.085938 182.402344 183.144531 C 182.363281 183.203125 182.320312 183.261719 182.277344 183.316406 C 182.234375 183.375 182.1875 183.429688 182.144531 183.484375 C 182.097656 183.539062 182.054688 183.59375 182.007812 183.648438 C 181.960938 183.703125 181.910156 183.757812 181.863281 183.808594 C 181.816406 183.863281 181.765625 183.914062 181.714844 183.964844 C 181.664062 184.015625 181.613281 184.066406 181.5625 184.113281 C 181.511719 184.164062 181.457031 184.210938 181.40625 184.257812 C 181.351562 184.304688 181.296875 184.351562 181.242188 184.398438 C 181.1875 184.441406 181.132812 184.488281 181.074219 184.53125 C 181.019531 184.574219 180.960938 184.617188 180.902344 184.660156 C 180.84375 184.703125 180.785156 184.742188 180.726562 184.78125 C 180.667969 184.824219 180.609375 184.859375 180.546875 184.898438 C 180.488281 184.9375 180.425781 184.972656 180.363281 185.011719 C 180.304688 185.046875 180.242188 185.082031 180.179688 185.113281 C 180.113281 185.148438 180.050781 185.179688 179.988281 185.214844 C 179.925781 185.246094 179.859375 185.277344 179.792969 185.304688 C 179.730469 185.335938 179.664062 185.363281 179.597656 185.390625 C 179.53125 185.417969 179.464844 185.445312 179.398438 185.46875 C 179.332031 185.496094 179.265625 185.519531 179.199219 185.542969 C 179.128906 185.566406 179.0625 185.589844 178.996094 185.609375 C 178.925781 185.628906 178.855469 185.648438 178.789062 185.667969 C 178.71875 185.6875 178.648438 185.703125 178.582031 185.71875 C 178.511719 185.738281 178.441406 185.753906 178.371094 185.765625 C 178.300781 185.78125 178.230469 185.792969 178.160156 185.804688 C 178.054688 185.820312 177.953125 185.835938 177.847656 185.847656 C 177.742188 185.859375 177.636719 185.871094 177.53125 185.878906 C 177.425781 185.886719 177.320312 185.890625 177.214844 185.890625 C 177.109375 185.894531 177.003906 185.894531 176.898438 185.890625 C 176.792969 185.886719 176.6875 185.882812 176.582031 185.871094 C 176.476562 185.863281 176.371094 185.851562 176.265625 185.839844 C 176.160156 185.828125 176.058594 185.808594 175.953125 185.792969 C 175.847656 185.773438 175.746094 185.753906 175.644531 185.730469 C 175.539062 185.707031 175.4375 185.679688 175.335938 185.652344 C 175.234375 185.621094 175.132812 185.589844 175.03125 185.558594 C 174.933594 185.523438 174.832031 185.488281 174.734375 185.449219 C 174.636719 185.410156 174.539062 185.371094 174.441406 185.328125 C 174.347656 185.285156 174.25 185.238281 174.15625 185.191406 C 174.0625 185.144531 173.96875 185.09375 173.878906 185.042969 C 173.785156 184.988281 173.695312 184.933594 173.605469 184.878906 C 173.515625 184.820312 173.429688 184.761719 173.34375 184.699219 C 173.257812 184.640625 173.171875 184.578125 173.089844 184.511719 C 173.003906 184.445312 172.925781 184.378906 172.84375 184.3125 C 172.765625 184.242188 172.6875 184.171875 172.609375 184.097656 C 172.53125 184.023438 172.457031 183.949219 172.386719 183.875 C 172.3125 183.796875 172.242188 183.71875 172.171875 183.640625 C 172.105469 183.558594 172.035156 183.476562 171.972656 183.394531 C 171.90625 183.3125 171.84375 183.226562 171.78125 183.140625 C 171.722656 183.054688 171.664062 182.964844 171.605469 182.875 C 171.550781 182.789062 171.496094 182.695312 171.441406 182.605469 C 171.390625 182.511719 171.339844 182.417969 171.292969 182.324219 C 171.246094 182.230469 171.199219 182.136719 171.15625 182.039062 C 171.113281 181.941406 171.074219 181.84375 171.035156 181.746094 C 170.996094 181.648438 170.960938 181.550781 170.929688 181.449219 C 170.894531 181.347656 170.863281 181.246094 170.835938 181.144531 C 170.808594 181.042969 170.78125 180.941406 170.757812 180.839844 C 170.734375 180.734375 170.710938 180.632812 170.695312 180.527344 C 170.675781 180.425781 170.660156 180.320312 170.648438 180.214844 C 170.632812 180.109375 170.621094 180.003906 170.613281 179.898438 C 170.605469 179.792969 170.601562 179.6875 170.597656 179.582031 C 170.59375 179.476562 170.59375 179.371094 170.597656 179.265625 C 170.597656 179.160156 170.601562 179.054688 170.609375 178.949219 C 170.617188 178.84375 170.625 178.738281 170.640625 178.632812 C 170.652344 178.53125 170.664062 178.425781 170.683594 178.320312 C 170.699219 178.214844 170.722656 178.113281 170.742188 178.007812 C 170.765625 177.90625 170.789062 177.804688 170.816406 177.703125 C 170.84375 177.601562 170.875 177.5 170.90625 177.398438 C 170.941406 177.296875 170.976562 177.199219 171.011719 177.097656 C 171.050781 177 171.089844 176.902344 171.132812 176.804688 C 171.171875 176.707031 171.21875 176.613281 171.265625 176.519531 C 171.3125 176.421875 171.359375 176.328125 171.410156 176.238281 C 171.464844 176.144531 171.515625 176.054688 171.570312 175.964844 C 171.628906 175.875 171.6875 175.785156 171.746094 175.699219 C 171.804688 175.613281 171.867188 175.527344 171.933594 175.441406 C 171.996094 175.359375 172.0625 175.277344 172.132812 175.195312 C 172.199219 175.113281 172.269531 175.035156 172.339844 174.957031 C 172.414062 174.882812 172.488281 174.804688 172.5625 174.734375 C 172.640625 174.660156 172.714844 174.585938 172.796875 174.515625 C 172.875 174.445312 172.957031 174.378906 173.039062 174.3125 C 173.121094 174.246094 173.203125 174.183594 173.289062 174.121094 C 173.375 174.058594 173.464844 174 173.550781 173.941406 C 173.640625 173.886719 173.730469 173.828125 173.820312 173.777344 C 173.914062 173.722656 174.003906 173.671875 174.097656 173.625 C 174.191406 173.574219 174.289062 173.527344 174.382812 173.484375 C 174.480469 173.441406 174.578125 173.398438 174.675781 173.359375 C 174.773438 173.320312 174.871094 173.285156 174.972656 173.25 C 175.070312 173.214844 175.171875 173.183594 175.273438 173.152344 C 175.375 173.125 175.476562 173.097656 175.582031 173.070312 C 175.683594 173.046875 175.785156 173.023438 175.890625 173.003906 Z M 175.890625 173.003906 " fill-opacity="1" fill-rule="nonzero"/><path fill="#ffffff" d="M 176.460938 175.21875 C 176.53125 175.207031 176.597656 175.199219 176.664062 175.191406 C 176.734375 175.179688 176.800781 175.175781 176.871094 175.167969 C 176.9375 175.164062 177.007812 175.160156 177.078125 175.160156 C 177.144531 175.160156 177.214844 175.160156 177.28125 175.160156 C 177.351562 175.164062 177.417969 175.164062 177.488281 175.171875 C 177.554688 175.175781 177.625 175.183594 177.691406 175.191406 C 177.761719 175.199219 177.828125 175.210938 177.894531 175.222656 C 177.964844 175.234375 178.03125 175.246094 178.097656 175.261719 C 178.164062 175.277344 178.230469 175.296875 178.296875 175.3125 C 178.363281 175.332031 178.429688 175.351562 178.496094 175.375 C 178.558594 175.394531 178.625 175.417969 178.6875 175.445312 C 178.753906 175.46875 178.816406 175.496094 178.878906 175.523438 C 178.941406 175.550781 179.003906 175.582031 179.0625 175.613281 C 179.125 175.644531 179.1875 175.675781 179.246094 175.710938 C 179.304688 175.742188 179.363281 175.777344 179.421875 175.816406 C 179.480469 175.851562 179.535156 175.890625 179.59375 175.929688 C 179.648438 175.96875 179.703125 176.011719 179.757812 176.054688 C 179.8125 176.097656 179.863281 176.140625 179.917969 176.183594 C 179.96875 176.230469 180.019531 176.277344 180.066406 176.324219 C 180.117188 176.371094 180.167969 176.421875 180.214844 176.46875 C 180.261719 176.519531 180.304688 176.570312 180.351562 176.621094 C 180.394531 176.675781 180.4375 176.726562 180.480469 176.78125 C 180.523438 176.835938 180.5625 176.890625 180.601562 176.949219 C 180.644531 177.003906 180.679688 177.0625 180.71875 177.121094 C 180.753906 177.179688 180.789062 177.238281 180.820312 177.296875 C 180.855469 177.355469 180.886719 177.417969 180.917969 177.480469 C 180.949219 177.539062 180.976562 177.601562 181.007812 177.664062 C 181.035156 177.726562 181.058594 177.792969 181.085938 177.855469 C 181.109375 177.921875 181.132812 177.984375 181.152344 178.050781 C 181.175781 178.117188 181.195312 178.179688 181.210938 178.246094 C 181.230469 178.3125 181.246094 178.378906 181.261719 178.445312 C 181.277344 178.515625 181.289062 178.582031 181.300781 178.648438 C 181.3125 178.71875 181.320312 178.785156 181.328125 178.851562 C 181.335938 178.921875 181.34375 178.988281 181.347656 179.058594 C 181.355469 179.125 181.355469 179.195312 181.359375 179.265625 C 181.359375 179.332031 181.359375 179.402344 181.355469 179.46875 C 181.355469 179.539062 181.351562 179.605469 181.347656 179.675781 C 181.339844 179.742188 181.332031 179.8125 181.324219 179.878906 C 181.316406 179.949219 181.304688 180.015625 181.292969 180.082031 C 181.28125 180.152344 181.269531 180.21875 181.253906 180.285156 C 181.238281 180.351562 181.21875 180.417969 181.203125 180.484375 C 181.183594 180.550781 181.164062 180.617188 181.140625 180.683594 C 181.117188 180.746094 181.09375 180.8125 181.070312 180.875 C 181.046875 180.9375 181.019531 181.003906 180.992188 181.066406 C 180.960938 181.128906 180.933594 181.191406 180.902344 181.25 C 180.871094 181.3125 180.839844 181.371094 180.804688 181.433594 C 180.769531 181.492188 180.734375 181.550781 180.695312 181.609375 C 180.660156 181.664062 180.621094 181.722656 180.582031 181.777344 C 180.542969 181.835938 180.5 181.890625 180.457031 181.941406 C 180.414062 181.996094 180.371094 182.050781 180.328125 182.101562 C 180.28125 182.152344 180.234375 182.203125 180.1875 182.253906 C 180.140625 182.304688 180.089844 182.351562 180.042969 182.398438 C 179.992188 182.445312 179.941406 182.492188 179.886719 182.535156 C 179.835938 182.582031 179.78125 182.625 179.726562 182.664062 C 179.671875 182.707031 179.617188 182.746094 179.5625 182.789062 C 179.503906 182.828125 179.449219 182.863281 179.390625 182.902344 C 179.332031 182.9375 179.273438 182.972656 179.210938 183.003906 C 179.152344 183.039062 179.089844 183.070312 179.03125 183.101562 C 178.96875 183.132812 178.90625 183.160156 178.84375 183.1875 C 178.78125 183.214844 178.71875 183.242188 178.652344 183.265625 C 178.589844 183.289062 178.523438 183.3125 178.457031 183.335938 C 178.394531 183.355469 178.328125 183.375 178.261719 183.394531 C 178.195312 183.410156 178.128906 183.425781 178.0625 183.441406 C 177.992188 183.457031 177.925781 183.46875 177.859375 183.480469 C 177.792969 183.492188 177.722656 183.5 177.65625 183.507812 C 177.585938 183.515625 177.519531 183.523438 177.449219 183.527344 C 177.382812 183.53125 177.316406 183.535156 177.246094 183.535156 C 177.175781 183.539062 177.109375 183.539062 177.039062 183.535156 C 176.972656 183.535156 176.902344 183.53125 176.835938 183.523438 C 176.765625 183.519531 176.699219 183.511719 176.632812 183.503906 C 176.5625 183.492188 176.496094 183.484375 176.429688 183.472656 C 176.359375 183.460938 176.292969 183.445312 176.226562 183.429688 C 176.160156 183.414062 176.09375 183.398438 176.027344 183.378906 C 175.960938 183.359375 175.898438 183.339844 175.832031 183.316406 C 175.769531 183.296875 175.703125 183.273438 175.640625 183.246094 C 175.574219 183.222656 175.511719 183.195312 175.449219 183.167969 C 175.386719 183.140625 175.324219 183.109375 175.265625 183.078125 C 175.203125 183.046875 175.144531 183.015625 175.085938 182.980469 C 175.023438 182.949219 174.96875 182.910156 174.910156 182.875 C 174.851562 182.839844 174.792969 182.800781 174.738281 182.761719 C 174.683594 182.71875 174.628906 182.679688 174.574219 182.636719 C 174.519531 182.59375 174.46875 182.550781 174.417969 182.503906 C 174.363281 182.460938 174.316406 182.414062 174.265625 182.367188 C 174.214844 182.320312 174.167969 182.269531 174.121094 182.222656 C 174.074219 182.171875 174.027344 182.121094 173.984375 182.066406 C 173.941406 182.015625 173.894531 181.964844 173.855469 181.910156 C 173.8125 181.855469 173.773438 181.800781 173.734375 181.742188 C 173.695312 181.6875 173.65625 181.628906 173.621094 181.570312 C 173.582031 181.515625 173.546875 181.457031 173.515625 181.394531 C 173.480469 181.335938 173.449219 181.273438 173.417969 181.214844 C 173.386719 181.152344 173.359375 181.089844 173.332031 181.027344 C 173.304688 180.964844 173.277344 180.902344 173.253906 180.839844 C 173.230469 180.773438 173.207031 180.710938 173.1875 180.644531 C 173.164062 180.578125 173.144531 180.511719 173.128906 180.449219 C 173.109375 180.382812 173.09375 180.316406 173.078125 180.25 C 173.0625 180.179688 173.050781 180.113281 173.039062 180.046875 C 173.027344 179.980469 173.019531 179.910156 173.011719 179.84375 C 173 179.773438 172.996094 179.707031 172.992188 179.640625 C 172.984375 179.570312 172.984375 179.503906 172.980469 179.433594 C 172.980469 179.367188 172.980469 179.296875 172.980469 179.230469 C 172.984375 179.160156 172.988281 179.09375 172.992188 179.023438 C 173 178.957031 173.003906 178.886719 173.015625 178.820312 C 173.023438 178.75 173.03125 178.683594 173.046875 178.617188 C 173.058594 178.550781 173.070312 178.480469 173.085938 178.414062 C 173.101562 178.347656 173.117188 178.28125 173.136719 178.214844 C 173.15625 178.148438 173.175781 178.085938 173.195312 178.019531 C 173.21875 177.953125 173.242188 177.890625 173.265625 177.828125 C 173.292969 177.761719 173.316406 177.699219 173.347656 177.636719 C 173.375 177.574219 173.402344 177.511719 173.433594 177.453125 C 173.464844 177.390625 173.496094 177.332031 173.53125 177.269531 C 173.566406 177.210938 173.601562 177.152344 173.636719 177.09375 C 173.675781 177.039062 173.710938 176.980469 173.753906 176.925781 C 173.792969 176.871094 173.832031 176.816406 173.875 176.761719 C 173.917969 176.707031 173.960938 176.652344 174.007812 176.601562 C 174.050781 176.550781 174.097656 176.5 174.144531 176.449219 C 174.191406 176.402344 174.238281 176.351562 174.289062 176.304688 C 174.339844 176.257812 174.390625 176.214844 174.441406 176.167969 C 174.496094 176.125 174.546875 176.082031 174.601562 176.039062 C 174.65625 175.996094 174.710938 175.957031 174.765625 175.917969 C 174.824219 175.878906 174.878906 175.839844 174.9375 175.804688 C 174.996094 175.765625 175.054688 175.730469 175.113281 175.699219 C 175.171875 175.664062 175.234375 175.632812 175.296875 175.601562 C 175.355469 175.570312 175.417969 175.542969 175.480469 175.515625 C 175.542969 175.488281 175.605469 175.460938 175.671875 175.4375 C 175.734375 175.410156 175.800781 175.390625 175.863281 175.367188 C 175.929688 175.347656 175.996094 175.328125 176.0625 175.308594 C 176.128906 175.289062 176.195312 175.273438 176.261719 175.257812 C 176.328125 175.242188 176.394531 175.230469 176.460938 175.21875 Z M 176.460938 175.21875 " fill-opacity="1" fill-rule="nonzero"/><path fill="#ffffff" d="M 238.957031 180.617188 C 239.011719 180.660156 239.019531 180.742188 239.050781 180.804688 C 238.222656 183.0625 236.964844 185.246094 235.851562 187.378906 C 233.101562 192.640625 230.101562 197.710938 227.15625 202.859375 C 220.972656 204.730469 214.71875 206.304688 208.476562 207.957031 C 198.464844 210.675781 188.398438 213.15625 178.269531 215.398438 C 168.144531 217.644531 157.96875 219.648438 147.75 221.414062 C 130.324219 224.535156 112.851562 227.347656 95.171875 228.53125 C 85.101562 229.203125 74.03125 229.125 65.113281 223.710938 C 63.019531 222.441406 61.117188 220.808594 59.277344 219.199219 C 57.097656 217.097656 54.714844 214.605469 53.171875 211.996094 C 56.457031 212.828125 59.738281 213.625 63.078125 214.203125 C 86.003906 218.152344 109.660156 215.289062 132.292969 210.855469 C 137.214844 209.894531 142.121094 208.761719 147.027344 207.71875 C 154.976562 206.089844 162.886719 204.285156 170.757812 202.300781 C 178.628906 200.316406 186.453125 198.15625 194.226562 195.820312 C 204.21875 192.722656 214.15625 189.449219 224.035156 185.992188 C 229.023438 184.246094 233.953125 182.304688 238.957031 180.617188 Z M 238.957031 180.617188 " fill-opacity="1" fill-rule="nonzero"/><path fill="#ffffff" d="M 257.167969 113.28125 C 257.191406 113.355469 257.234375 113.421875 257.273438 113.492188 L 257.289062 113.359375 C 257.191406 115.15625 256.753906 117.007812 256.46875 118.785156 C 256.054688 121.378906 255.734375 124.035156 255.167969 126.597656 C 255.085938 126.652344 255 126.710938 254.914062 126.761719 C 252.828125 128.035156 250.511719 129.027344 248.332031 130.140625 C 241.382812 133.683594 234.265625 136.933594 227.203125 140.242188 C 205.578125 150.378906 183.589844 160.191406 160.898438 167.71875 C 148.289062 171.90625 135.265625 175.296875 122.328125 178.316406 C 108.890625 181.457031 95.535156 184.207031 81.6875 184.65625 C 69.226562 185.0625 56.929688 183.40625 44.820312 180.554688 C 41.671875 179.8125 38.558594 178.890625 35.425781 178.085938 L 35.140625 177.144531 C 34.492188 175.289062 33.992188 173.320312 33.46875 171.425781 C 35.75 172.019531 38.007812 172.699219 40.296875 173.257812 C 51.019531 175.871094 62.4375 177.871094 73.503906 177.644531 C 86.957031 177.367188 100.496094 174.625 113.527344 171.433594 C 148.683594 162.828125 182.949219 149.289062 215.792969 134.210938 C 224.160156 130.433594 232.449219 126.496094 240.65625 122.386719 C 246.257812 119.523438 251.679688 116.34375 257.167969 113.28125 Z M 257.167969 113.28125 " fill-opacity="1" fill-rule="nonzero"/><path fill="#ffffff" d="M 154.445312 114.339844 L 154.683594 114.359375 C 155.015625 114.839844 155.9375 151.789062 155.902344 154.726562 C 149.144531 157.121094 142.292969 159.417969 135.410156 161.410156 C 134.804688 154.117188 134.796875 146.707031 134.679688 139.394531 C 134.644531 137.078125 134.582031 134.765625 134.492188 132.453125 C 134.457031 131.261719 134.496094 130.003906 134.363281 128.820312 C 134.328125 128.511719 134.269531 128.210938 134.035156 127.980469 C 133.765625 127.714844 133.414062 127.605469 133.042969 127.621094 C 131.652344 127.6875 129.101562 128.898438 127.703125 129.429688 C 123.9375 130.859375 120.207031 132.378906 116.425781 133.777344 C 113.933594 134.699219 111.363281 135.414062 108.886719 136.371094 C 108.394531 136.558594 107.734375 136.769531 107.382812 137.171875 L 107.457031 137.214844 L 107.464844 137.335938 L 107.332031 137.429688 C 107.101562 138.976562 107.296875 140.613281 107.371094 142.175781 L 107.644531 148.144531 L 108.328125 167.300781 L 108.351562 168.695312 C 105.507812 169.230469 102.710938 170.078125 99.871094 170.648438 C 93.253906 171.976562 86.261719 172.96875 79.535156 173.554688 C 79.335938 163.5 78.519531 153.460938 77.945312 143.425781 C 81.140625 141.75 84.625 140.511719 87.96875 139.160156 C 92.746094 137.222656 97.546875 135.234375 102.386719 133.460938 C 103.894531 132.90625 105.441406 132.460938 106.957031 131.9375 C 109.445312 131.078125 111.929688 130.15625 114.394531 129.238281 L 141.363281 119.027344 C 145.703125 117.421875 150.027344 115.714844 154.445312 114.339844 Z M 154.445312 114.339844 " fill-opacity="1" fill-rule="nonzero"/><path fill="#03346e" d="M 100.410156 139.359375 C 100.722656 139.347656 100.90625 139.378906 101.195312 139.496094 C 101.371094 139.734375 101.410156 139.8125 101.433594 140.117188 C 101.589844 142.054688 101.410156 144.125 101.449219 146.082031 C 101.507812 148.871094 101.769531 151.652344 101.679688 154.445312 C 101.320312 154.78125 100.910156 155.027344 100.457031 155.222656 C 97.6875 156.433594 94.726562 157.289062 91.878906 158.304688 C 89.859375 159.023438 87.875 159.941406 85.824219 160.554688 C 85.441406 160.667969 85.097656 160.714844 84.703125 160.710938 C 84.464844 160.609375 84.175781 160.496094 84.074219 160.25 C 83.691406 159.308594 83.847656 157.046875 83.820312 155.941406 C 83.765625 153.945312 83.75 151.929688 83.601562 149.9375 C 83.519531 148.867188 83.285156 147.800781 83.261719 146.722656 C 83.25 146.292969 83.3125 145.960938 83.464844 145.5625 C 85.121094 144.34375 89.671875 143.140625 91.824219 142.386719 C 94.6875 141.382812 97.535156 140.316406 100.410156 139.359375 Z M 100.410156 139.359375 " fill-opacity="1" fill-rule="nonzero"/><path fill="#ffffff" d="M 91.214844 144.960938 L 91.359375 144.988281 C 91.597656 145.476562 91.863281 154.539062 91.960938 155.933594 C 90.113281 156.53125 88.371094 157.429688 86.523438 158.050781 L 86.308594 158.019531 C 86.265625 157.953125 86.207031 157.898438 86.183594 157.828125 C 86.015625 157.332031 86.03125 153.085938 85.992188 152.207031 C 85.894531 150.429688 85.78125 148.65625 85.652344 146.882812 C 87.425781 146.089844 89.371094 145.5625 91.214844 144.960938 Z M 91.214844 144.960938 " fill-opacity="1" fill-rule="nonzero"/><path fill="#ffffff" d="M 98.960938 142.292969 C 99.007812 142.34375 99.070312 142.386719 99.105469 142.449219 C 99.246094 142.695312 99.140625 145.769531 99.152344 146.246094 C 99.207031 148.574219 99.355469 150.902344 99.484375 153.230469 C 97.652344 153.933594 95.808594 154.59375 93.945312 155.214844 L 93.859375 155.179688 C 93.671875 154.910156 93.503906 145.238281 93.484375 144.105469 C 95.285156 143.417969 97.109375 142.816406 98.960938 142.292969 Z M 98.960938 142.292969 " fill-opacity="1" fill-rule="nonzero"/><path fill="#03346e" d="M 151.132812 118.566406 C 151.699219 118.5 152.402344 118.425781 152.875 118.8125 C 153.085938 118.984375 153.207031 119.179688 153.257812 119.445312 C 153.480469 120.550781 153.367188 121.898438 153.402344 123.027344 C 153.5 126.335938 153.492188 129.675781 153.773438 132.972656 C 152.449219 133.820312 150.789062 134.328125 149.332031 134.898438 C 146.171875 136.117188 143 137.296875 139.808594 138.4375 C 139.394531 138.5625 138.886719 138.75 138.457031 138.570312 C 138.210938 138.464844 138.050781 138.261719 137.941406 138.027344 C 137.800781 137.726562 137.734375 137.402344 137.703125 137.074219 C 137.574219 135.832031 137.691406 134.515625 137.644531 133.261719 C 137.53125 130.367188 137.25 127.34375 137.375 124.453125 C 137.394531 124.015625 137.464844 123.628906 137.601562 123.210938 C 137.804688 122.980469 138.015625 122.890625 138.296875 122.785156 C 138.921875 122.554688 139.617188 122.453125 140.261719 122.277344 C 141.253906 122.007812 142.230469 121.675781 143.203125 121.347656 C 145.851562 120.460938 148.449219 119.328125 151.132812 118.566406 Z M 151.132812 118.566406 " fill-opacity="1" fill-rule="nonzero"/><path fill="#ffffff" d="M 150.820312 121.234375 L 150.917969 121.253906 C 150.964844 121.300781 151.035156 121.332031 151.0625 121.394531 C 151.160156 121.609375 151.359375 130.433594 151.375 131.398438 C 149.828125 132.144531 148.246094 132.796875 146.628906 133.363281 C 146.492188 133.347656 146.582031 133.367188 146.378906 133.242188 C 146.179688 129.777344 146.191406 126.230469 146.148438 122.761719 Z M 150.820312 121.234375 " fill-opacity="1" fill-rule="nonzero"/><path fill="#ffffff" d="M 144.078125 123.59375 L 144.136719 123.632812 C 144.519531 124.4375 144.425781 132.785156 144.425781 134.304688 C 143.707031 134.660156 142.972656 134.980469 142.226562 135.261719 C 141.476562 135.546875 140.71875 135.792969 139.945312 136.003906 C 139.742188 135.601562 139.605469 126.476562 139.542969 125.085938 C 141.039062 124.535156 142.558594 124.066406 144.078125 123.59375 Z M 144.078125 123.59375 " fill-opacity="1" fill-rule="nonzero"/><path fill="#ffffff" d="M 128.355469 97.160156 C 129.707031 97.0625 133.535156 98.421875 135.03125 98.820312 L 153.164062 103.777344 C 150.367188 104.914062 147.488281 105.878906 144.652344 106.921875 L 133.066406 111.308594 L 114.910156 118.128906 C 112.03125 119.222656 109.203125 120.457031 106.304688 121.496094 C 104.664062 122.09375 103.007812 122.65625 101.34375 123.183594 C 99.824219 123.648438 98.265625 124.039062 96.773438 124.585938 C 89.550781 127.230469 82.480469 130.3125 75.253906 132.921875 C 72.535156 131.988281 69.605469 131.457031 66.835938 130.628906 C 64.25 129.855469 61.664062 129.03125 59.050781 128.339844 C 55.816406 127.488281 52.523438 126.796875 49.261719 126.039062 C 50.554688 125.242188 52.128906 124.746094 53.546875 124.195312 L 60.515625 121.539062 L 88.914062 111.015625 C 89.359375 113.609375 89.367188 116.246094 89.761719 118.835938 C 90.730469 119.535156 92.03125 119.980469 93.175781 120.285156 C 94.972656 120.769531 96.90625 121.039062 98.769531 120.960938 C 101.808594 120.832031 109.085938 118.902344 111.75 117.371094 C 112.4375 112.570312 112.050781 107.65625 112.410156 102.839844 C 117.644531 100.75 123.058594 99.082031 128.355469 97.160156 Z M 128.355469 97.160156 " fill-opacity="1" fill-rule="nonzero"/><path fill="#ffffff" d="M 50.21875 136.734375 C 54.640625 137.992188 59.09375 139.0625 63.53125 140.25 C 67.628906 141.347656 71.703125 142.5625 75.785156 143.726562 C 76.167969 148.316406 76.28125 152.964844 76.546875 157.566406 C 76.859375 162.949219 77.316406 168.40625 77.28125 173.800781 C 69.089844 174.0625 60.875 173.664062 52.855469 171.878906 C 52.519531 170.097656 52.449219 168.21875 52.289062 166.410156 C 51.9375 162.4375 51.679688 158.476562 51.414062 154.5 C 51.015625 148.585938 50.328125 142.664062 50.21875 136.734375 Z M 50.21875 136.734375 " fill-opacity="1" fill-rule="nonzero"/><path fill="#03346e" d="M 52.492188 139.105469 C 53.460938 139.074219 54.460938 139.488281 55.386719 139.761719 C 59.25 140.902344 63.105469 142.035156 67.011719 143.027344 C 69.195312 143.582031 71.492188 143.949219 73.632812 144.609375 C 73.660156 147.761719 73.742188 150.910156 73.710938 154.0625 C 73.699219 155.292969 73.789062 156.679688 73.523438 157.886719 C 73.425781 158.324219 73.253906 158.597656 72.957031 158.925781 C 72.449219 158.984375 71.949219 158.917969 71.449219 158.824219 C 68.933594 158.339844 54.046875 154.527344 52.808594 153.628906 C 52.648438 153.203125 52.546875 152.785156 52.488281 152.339844 C 52.292969 150.820312 52.304688 149.238281 52.191406 147.707031 C 52.046875 145.785156 51.503906 141.769531 51.753906 140.011719 C 51.824219 139.535156 52.125 139.367188 52.492188 139.105469 Z M 52.492188 139.105469 " fill-opacity="1" fill-rule="nonzero"/><path fill="#ffffff" d="M 53.960938 141.703125 L 59.03125 143.238281 C 59.066406 146.566406 59.144531 149.929688 58.984375 153.253906 C 57.519531 153.058594 55.996094 152.449219 54.589844 151.988281 C 54.226562 148.613281 54.050781 145.101562 53.960938 141.703125 Z M 53.960938 141.703125 " fill-opacity="1" fill-rule="nonzero"/><path fill="#ffffff" d="M 66.816406 145.136719 C 68.398438 145.554688 69.996094 145.886719 71.566406 146.367188 C 71.699219 149.710938 71.625 153.042969 71.535156 156.390625 C 70.648438 156.582031 68.09375 155.78125 67.117188 155.558594 C 66.898438 152.09375 66.871094 148.605469 66.816406 145.136719 Z M 66.816406 145.136719 " fill-opacity="1" fill-rule="nonzero"/><path fill="#ffffff" d="M 61.035156 143.632812 C 62.324219 144.019531 63.625 144.386719 64.890625 144.851562 C 65.050781 146.03125 65.007812 147.269531 65.042969 148.457031 C 65.117188 150.660156 65.171875 152.859375 65.210938 155.0625 C 63.796875 154.613281 62.34375 154.285156 60.90625 153.925781 C 60.867188 150.496094 60.992188 147.0625 61.035156 143.632812 Z M 61.035156 143.632812 " fill-opacity="1" fill-rule="nonzero"/><path fill="#ffffff" d="M 132.117188 130.105469 L 132.234375 130.132812 C 132.421875 130.480469 132.726562 151.601562 132.804688 154.0625 C 132.890625 156.765625 133.171875 159.460938 133.25 162.164062 C 130.570312 162.882812 127.917969 163.753906 125.246094 164.511719 C 120.394531 165.894531 115.507812 167.152344 110.589844 168.285156 C 110.355469 167.277344 110.472656 165.972656 110.457031 164.929688 C 110.429688 162.617188 110.382812 160.308594 110.3125 157.996094 C 110.136719 154.011719 109.9375 150.03125 109.710938 146.050781 C 109.574219 143.578125 109.367188 141.097656 109.394531 138.621094 C 113.109375 137.488281 116.789062 136.070312 120.417969 134.683594 C 124.335938 133.203125 128.234375 131.679688 132.117188 130.105469 Z M 132.117188 130.105469 " fill-opacity="1" fill-rule="nonzero"/><path fill="#ffffff" d="M 109.074219 90.035156 L 109.257812 90.019531 C 109.308594 90.078125 109.375 90.128906 109.414062 90.199219 C 109.785156 90.847656 109.964844 113.046875 109.847656 115.707031 C 109.742188 115.773438 109.636719 115.835938 109.527344 115.894531 C 106.316406 117.585938 99.859375 119.097656 96.3125 118.792969 C 94.742188 118.65625 93.273438 118.183594 91.78125 117.703125 C 91.433594 116.902344 91.679688 112.109375 91.675781 110.878906 C 91.648438 104.019531 91.394531 97.183594 91.253906 90.328125 C 97.882812 92.6875 102.460938 92.230469 109.074219 90.035156 Z M 109.074219 90.035156 " fill-opacity="1" fill-rule="nonzero"/><path fill="#ffffff" d="M 156.75 105.121094 L 156.847656 105.203125 C 157.148438 106.226562 156.984375 109.300781 157.011719 110.574219 C 154.175781 112.003906 150.996094 112.972656 148.019531 114.078125 C 143.5625 115.734375 139.140625 117.457031 134.671875 119.078125 L 95.484375 133.550781 C 92.898438 134.535156 78.40625 140.652344 77.105469 140.492188 C 76.933594 138.609375 76.769531 136.726562 76.503906 134.851562 C 77.957031 134.199219 79.503906 133.722656 80.980469 133.121094 C 86.3125 130.902344 91.703125 128.828125 97.148438 126.898438 C 100.625 125.675781 104.152344 124.621094 107.605469 123.324219 L 131.667969 114.25 C 139.96875 111.085938 148.300781 107.859375 156.75 105.121094 Z M 156.75 105.121094 " fill-opacity="1" fill-rule="nonzero"/><path fill="#ffffff" d="M 261.984375 100.925781 C 262.09375 100.917969 262.203125 100.910156 262.316406 100.910156 C 262.894531 100.914062 263.535156 100.921875 263.960938 101.359375 C 264.375 102.761719 263.273438 110.171875 263.039062 112.042969 C 260.199219 135.003906 256 156.410156 246.378906 177.617188 C 244.382812 182.011719 242.035156 186.25 239.796875 190.527344 C 238.621094 192.765625 236.011719 198.226562 234.402344 199.949219 C 233.726562 200.679688 232.6875 200.957031 231.777344 201.296875 L 230.183594 201.804688 C 231.949219 199.296875 233.425781 196.535156 234.917969 193.859375 C 240.398438 184.023438 244.410156 174.148438 247.960938 163.472656 C 249.011719 160.308594 250.078125 157.132812 250.992188 153.925781 C 251.597656 151.800781 252.097656 149.640625 252.664062 147.503906 C 254.453125 140.738281 256.117188 133.984375 257.289062 127.078125 C 258.304688 121.261719 259.234375 115.433594 260.070312 109.589844 L 260.796875 104.382812 C 260.90625 103.539062 260.882812 102.453125 261.160156 101.664062 C 261.316406 101.222656 261.585938 101.097656 261.984375 100.925781 Z M 261.984375 100.925781 " fill-opacity="1" fill-rule="nonzero"/><path fill="#ffffff" d="M 255.070312 109.226562 C 255.1875 109.207031 255.378906 109.222656 255.5 109.226562 C 254.707031 110.507812 247.910156 113.054688 246.261719 113.558594 C 238.296875 115.988281 230.015625 116.933594 221.972656 118.996094 C 210.039062 122.054688 198.292969 125.824219 186.5625 129.566406 C 180.40625 131.472656 174.285156 133.488281 168.203125 135.605469 C 165.3125 136.605469 162.40625 137.570312 159.5625 138.695312 L 159.3125 138.734375 C 158.882812 138.191406 159.085938 135.96875 159.09375 135.222656 C 180.878906 127.191406 202.894531 119.648438 225.574219 114.53125 C 231.683594 113.203125 237.828125 112.058594 244.003906 111.09375 C 247.695312 110.492188 251.398438 109.964844 255.070312 109.226562 Z M 255.070312 109.226562 " fill-opacity="1" fill-rule="nonzero"/><path fill="#ffffff" d="M 46.015625 127.773438 C 48.1875 127.867188 50.425781 128.542969 52.535156 129.042969 C 55.601562 129.777344 58.675781 130.5 61.699219 131.410156 C 65.835938 132.65625 69.8125 134.058594 74.054688 134.984375 C 74.417969 136.335938 74.851562 139.046875 74.859375 140.449219 C 74.863281 140.738281 74.863281 140.785156 74.667969 140.980469 C 71.167969 140.242188 67.6875 138.78125 64.265625 137.726562 C 58.382812 135.921875 51.804688 134.339844 45.730469 133.386719 C 45.800781 131.519531 45.789062 129.632812 46.015625 127.773438 Z M 46.015625 127.773438 " fill-opacity="1" fill-rule="nonzero"/><path fill="#ffffff" d="M 109.15625 81.1875 C 109.582031 81.910156 109.382812 86.539062 109.3125 87.613281 C 102.113281 89.738281 99.023438 90.421875 91.554688 88.449219 L 91.320312 88.359375 C 90.953125 87.636719 91.167969 82.476562 91.171875 81.328125 C 97.351562 82.710938 102.984375 82.65625 109.15625 81.1875 Z M 109.15625 81.1875 " fill-opacity="1" fill-rule="nonzero"/><path fill="#ffffff" d="M 192.042969 130.253906 L 192.144531 130.34375 C 192.179688 131.300781 189.503906 140.042969 188.984375 141.824219 C 185.667969 143.308594 182.25 144.773438 178.828125 145.992188 C 178.695312 145.667969 181.714844 134.597656 182.070312 133.496094 C 183.394531 132.898438 184.84375 132.5 186.226562 132.054688 C 188.15625 131.429688 190.085938 130.785156 192.042969 130.253906 Z M 192.042969 130.253906 " fill-opacity="1" fill-rule="nonzero"/><path fill="#ffffff" d="M 179.480469 134.246094 C 179.546875 134.894531 179.074219 136.050781 178.910156 136.707031 C 178.03125 140.257812 177.121094 143.71875 176.054688 147.21875 C 173.015625 148.242188 170.101562 149.621094 167.046875 150.597656 C 166.945312 150.164062 169.804688 138.800781 170.167969 137.34375 C 173.214844 136.300781 176.335938 134.921875 179.480469 134.246094 Z M 179.480469 134.246094 " fill-opacity="1" fill-rule="nonzero"/><path fill="#ffffff" d="M 109.378906 69.007812 C 110.183594 69.007812 110.953125 69.265625 111.699219 69.535156 C 111.820312 70.992188 112.292969 75.847656 111.664062 76.972656 C 110.070312 78.277344 103.644531 79.417969 101.410156 79.539062 C 100.769531 79.59375 100.117188 79.601562 99.472656 79.625 C 99.488281 76.855469 99.324219 73.921875 99.886719 71.203125 C 104.816406 73.65625 105.304688 70.296875 109.222656 69.058594 Z M 109.378906 69.007812 " fill-opacity="1" fill-rule="nonzero"/><path fill="#ffffff" d="M 203.28125 126.730469 C 203.441406 126.746094 203.363281 126.714844 203.511719 126.84375 C 202.753906 130.140625 201.660156 133.433594 200.710938 136.683594 C 197.726562 137.875 194.847656 139.324219 191.855469 140.519531 L 191.707031 140.445312 C 191.78125 139.398438 192.382812 138.128906 192.664062 137.085938 C 193.34375 134.601562 193.941406 132.085938 194.554688 129.582031 C 197.382812 128.460938 200.375 127.632812 203.28125 126.730469 Z M 203.28125 126.730469 " fill-opacity="1" fill-rule="nonzero"/><path fill="#ffffff" d="M 167.527344 138.300781 L 167.761719 138.320312 C 167.808594 138.714844 164.992188 149.886719 164.671875 151.445312 C 163.054688 152.171875 161.394531 152.769531 159.691406 153.246094 C 159.402344 149.195312 159.390625 145.105469 159.261719 141.046875 C 162.011719 140.113281 164.765625 139.199219 167.527344 138.300781 Z M 167.527344 138.300781 " fill-opacity="1" fill-rule="nonzero"/><path fill="#ffffff" d="M 95.640625 68.683594 C 96.761719 68.589844 97.625 68.898438 98.621094 69.347656 C 98.484375 69.476562 98.347656 69.605469 98.210938 69.738281 C 96.761719 71.203125 97.21875 77.3125 97.222656 79.464844 C 95.230469 79.160156 93.304688 78.789062 91.382812 78.164062 C 90.398438 77.863281 89.449219 77.375 88.539062 76.902344 C 88.109375 74.839844 88.082031 72.667969 88.078125 70.566406 C 88.875 70.871094 89.664062 71.136719 90.488281 71.363281 C 92.28125 70.582031 93.761719 69.339844 95.640625 68.683594 Z M 95.640625 68.683594 " fill-opacity="1" fill-rule="nonzero"/><path fill="#ffffff" d="M 214.148438 123.472656 C 214.335938 123.429688 214.226562 123.4375 214.476562 123.496094 C 214.648438 124.667969 213.148438 129.652344 212.820312 131.160156 C 209.863281 132.78125 206.746094 134.210938 203.621094 135.464844 L 203.417969 135.523438 L 203.3125 135.382812 C 203.449219 134.273438 203.886719 133.140625 204.199219 132.0625 C 204.789062 130.058594 205.359375 128.046875 205.910156 126.03125 C 208.613281 125 211.355469 124.210938 214.148438 123.472656 Z M 214.148438 123.472656 " fill-opacity="1" fill-rule="nonzero"/><path fill="#ffffff" d="M 142.886719 184.800781 C 142.953125 184.78125 143.023438 184.761719 143.09375 184.746094 C 143.160156 184.730469 143.230469 184.714844 143.300781 184.703125 C 143.371094 184.691406 143.441406 184.679688 143.515625 184.667969 C 143.585938 184.660156 143.65625 184.652344 143.726562 184.648438 C 143.796875 184.640625 143.871094 184.636719 143.941406 184.636719 C 144.011719 184.632812 144.082031 184.632812 144.15625 184.632812 C 144.226562 184.632812 144.296875 184.636719 144.367188 184.640625 C 144.441406 184.644531 144.511719 184.652344 144.582031 184.660156 C 144.652344 184.667969 144.722656 184.679688 144.792969 184.691406 C 144.863281 184.703125 144.933594 184.714844 145.003906 184.730469 C 145.074219 184.746094 145.144531 184.761719 145.210938 184.78125 C 145.28125 184.800781 145.351562 184.820312 145.417969 184.839844 C 145.484375 184.863281 145.554688 184.886719 145.621094 184.910156 C 145.6875 184.9375 145.753906 184.964844 145.820312 184.992188 C 145.882812 185.019531 145.949219 185.050781 146.011719 185.082031 C 146.078125 185.113281 146.140625 185.144531 146.203125 185.179688 C 146.265625 185.214844 146.328125 185.253906 146.386719 185.289062 C 146.449219 185.328125 146.507812 185.367188 146.566406 185.40625 C 146.625 185.449219 146.683594 185.488281 146.738281 185.53125 C 146.796875 185.578125 146.851562 185.621094 146.90625 185.667969 C 146.960938 185.714844 147.015625 185.761719 147.066406 185.808594 C 147.117188 185.859375 147.171875 185.910156 147.21875 185.960938 C 147.269531 186.011719 147.316406 186.0625 147.363281 186.117188 C 147.414062 186.171875 147.457031 186.226562 147.503906 186.28125 C 147.546875 186.335938 147.589844 186.394531 147.632812 186.453125 C 147.671875 186.511719 147.714844 186.570312 147.753906 186.628906 C 147.792969 186.6875 147.828125 186.75 147.863281 186.8125 C 147.898438 186.875 147.933594 186.9375 147.96875 187 C 148 187.0625 148.03125 187.128906 148.0625 187.191406 C 148.089844 187.257812 148.117188 187.324219 148.144531 187.390625 C 148.171875 187.457031 148.195312 187.523438 148.21875 187.589844 C 148.242188 187.65625 148.261719 187.726562 148.28125 187.792969 C 148.304688 187.863281 148.320312 187.933594 148.335938 188 C 148.355469 188.070312 148.367188 188.140625 148.382812 188.210938 C 148.394531 188.28125 148.40625 188.351562 148.414062 188.421875 C 148.425781 188.492188 148.433594 188.566406 148.4375 188.636719 C 148.445312 188.707031 148.449219 188.777344 148.449219 188.847656 C 148.453125 188.921875 148.453125 188.992188 148.453125 189.0625 C 148.453125 189.136719 148.449219 189.207031 148.445312 189.277344 C 148.441406 189.347656 148.433594 189.417969 148.425781 189.492188 C 148.417969 189.5625 148.410156 189.632812 148.398438 189.703125 C 148.386719 189.773438 148.371094 189.84375 148.359375 189.914062 C 148.34375 189.984375 148.324219 190.054688 148.308594 190.121094 C 148.289062 190.191406 148.269531 190.257812 148.246094 190.328125 C 148.226562 190.394531 148.203125 190.464844 148.179688 190.53125 C 148.152344 190.597656 148.125 190.664062 148.097656 190.730469 C 148.070312 190.792969 148.039062 190.859375 148.007812 190.921875 C 147.976562 190.988281 147.945312 191.050781 147.910156 191.113281 C 147.875 191.175781 147.839844 191.238281 147.800781 191.296875 C 147.765625 191.359375 147.726562 191.417969 147.683594 191.476562 C 147.644531 191.535156 147.601562 191.59375 147.558594 191.652344 C 147.515625 191.707031 147.472656 191.765625 147.425781 191.816406 C 147.378906 191.871094 147.332031 191.925781 147.285156 191.980469 C 147.234375 192.03125 147.183594 192.082031 147.132812 192.132812 C 147.082031 192.183594 147.03125 192.230469 146.976562 192.277344 C 146.921875 192.324219 146.867188 192.371094 146.8125 192.414062 C 146.757812 192.460938 146.699219 192.503906 146.644531 192.546875 C 146.585938 192.585938 146.527344 192.628906 146.464844 192.667969 C 146.40625 192.707031 146.34375 192.742188 146.285156 192.777344 C 146.222656 192.816406 146.160156 192.847656 146.097656 192.882812 C 146.03125 192.914062 145.96875 192.945312 145.902344 192.976562 C 145.839844 193.003906 145.773438 193.035156 145.707031 193.058594 C 145.640625 193.085938 145.574219 193.113281 145.507812 193.136719 C 145.4375 193.160156 145.371094 193.179688 145.300781 193.199219 C 145.234375 193.21875 145.164062 193.238281 145.09375 193.253906 C 145.023438 193.269531 144.953125 193.285156 144.882812 193.300781 C 144.8125 193.3125 144.742188 193.324219 144.671875 193.332031 C 144.601562 193.34375 144.53125 193.351562 144.457031 193.355469 C 144.386719 193.363281 144.316406 193.367188 144.242188 193.371094 C 144.171875 193.371094 144.101562 193.375 144.03125 193.371094 C 143.957031 193.371094 143.886719 193.371094 143.816406 193.363281 C 143.742188 193.359375 143.671875 193.355469 143.601562 193.347656 C 143.527344 193.339844 143.457031 193.328125 143.386719 193.316406 C 143.316406 193.304688 143.246094 193.292969 143.175781 193.277344 C 143.105469 193.261719 143.035156 193.246094 142.96875 193.230469 C 142.898438 193.210938 142.828125 193.191406 142.761719 193.167969 C 142.691406 193.148438 142.625 193.125 142.558594 193.097656 C 142.492188 193.074219 142.425781 193.046875 142.359375 193.019531 C 142.292969 192.992188 142.226562 192.960938 142.164062 192.929688 C 142.097656 192.898438 142.035156 192.863281 141.972656 192.828125 C 141.910156 192.796875 141.847656 192.757812 141.785156 192.722656 C 141.726562 192.683594 141.664062 192.644531 141.605469 192.605469 C 141.546875 192.5625 141.488281 192.523438 141.433594 192.476562 C 141.375 192.433594 141.320312 192.390625 141.265625 192.34375 C 141.210938 192.296875 141.15625 192.25 141.105469 192.199219 C 141.050781 192.152344 141 192.101562 140.949219 192.050781 C 140.902344 192 140.851562 191.945312 140.804688 191.894531 C 140.757812 191.839844 140.710938 191.785156 140.667969 191.730469 C 140.621094 191.671875 140.578125 191.617188 140.535156 191.558594 C 140.496094 191.5 140.453125 191.441406 140.414062 191.378906 C 140.375 191.320312 140.339844 191.257812 140.304688 191.195312 C 140.265625 191.136719 140.234375 191.074219 140.199219 191.007812 C 140.167969 190.945312 140.136719 190.878906 140.105469 190.816406 C 140.078125 190.75 140.046875 190.683594 140.023438 190.617188 C 139.996094 190.550781 139.96875 190.484375 139.949219 190.417969 C 139.925781 190.347656 139.902344 190.28125 139.882812 190.210938 C 139.863281 190.140625 139.84375 190.074219 139.828125 190.003906 C 139.8125 189.933594 139.796875 189.863281 139.785156 189.792969 C 139.773438 189.722656 139.761719 189.652344 139.75 189.582031 C 139.742188 189.511719 139.734375 189.4375 139.726562 189.367188 C 139.722656 189.296875 139.71875 189.222656 139.714844 189.152344 C 139.710938 189.082031 139.710938 189.007812 139.714844 188.9375 C 139.714844 188.867188 139.71875 188.792969 139.722656 188.722656 C 139.726562 188.652344 139.730469 188.582031 139.742188 188.507812 C 139.75 188.4375 139.757812 188.367188 139.769531 188.296875 C 139.78125 188.226562 139.792969 188.15625 139.808594 188.085938 C 139.824219 188.015625 139.84375 187.945312 139.859375 187.875 C 139.878906 187.808594 139.898438 187.738281 139.921875 187.671875 C 139.941406 187.601562 139.964844 187.535156 139.992188 187.46875 C 140.015625 187.398438 140.042969 187.332031 140.070312 187.269531 C 140.101562 187.203125 140.128906 187.136719 140.160156 187.074219 C 140.191406 187.007812 140.226562 186.945312 140.261719 186.882812 C 140.296875 186.820312 140.332031 186.757812 140.371094 186.699219 C 140.40625 186.636719 140.445312 186.578125 140.488281 186.519531 C 140.527344 186.457031 140.570312 186.402344 140.613281 186.34375 C 140.65625 186.289062 140.703125 186.230469 140.75 186.175781 C 140.796875 186.121094 140.84375 186.070312 140.890625 186.015625 C 140.941406 185.964844 140.992188 185.914062 141.042969 185.863281 C 141.09375 185.8125 141.148438 185.765625 141.199219 185.71875 C 141.253906 185.671875 141.308594 185.625 141.367188 185.578125 C 141.421875 185.535156 141.480469 185.492188 141.539062 185.449219 C 141.59375 185.410156 141.65625 185.367188 141.714844 185.328125 C 141.773438 185.289062 141.835938 185.253906 141.898438 185.21875 C 141.960938 185.183594 142.023438 185.148438 142.085938 185.113281 C 142.152344 185.082031 142.214844 185.050781 142.28125 185.023438 C 142.34375 184.992188 142.410156 184.964844 142.476562 184.9375 C 142.542969 184.910156 142.613281 184.886719 142.679688 184.863281 C 142.746094 184.839844 142.816406 184.820312 142.886719 184.800781 Z M 142.886719 184.800781 " fill-opacity="1" fill-rule="nonzero"/><path fill="#ffffff" d="M 225.867188 120.566406 C 226.089844 120.546875 225.980469 120.523438 226.183594 120.644531 C 226.191406 122.074219 225.714844 123.789062 225.390625 125.195312 C 222.992188 127.003906 218.523438 128.773438 215.671875 130.015625 C 215.5 130.066406 215.597656 130.058594 215.378906 130.015625 C 215.324219 129.136719 216.683594 124.042969 216.976562 122.785156 C 219.902344 121.898438 222.867188 121.160156 225.867188 120.566406 Z M 225.867188 120.566406 " fill-opacity="1" fill-rule="nonzero"/><path fill="#ffffff" d="M 48.667969 162.953125 L 48.804688 163.011719 C 48.96875 163.871094 48.921875 164.828125 48.980469 165.703125 C 49.101562 167.609375 49.277344 169.515625 49.347656 171.425781 C 46.023438 170.925781 42.777344 169.960938 39.546875 169.054688 L 36.394531 168.074219 C 40.554688 166.53125 44.589844 164.695312 48.667969 162.953125 Z M 48.667969 162.953125 " fill-opacity="1" fill-rule="nonzero"/><path fill="#ffffff" d="M 236.15625 118.480469 L 236.226562 118.570312 C 236.238281 119.113281 236.050781 119.671875 235.921875 120.199219 C 233.285156 121.621094 230.515625 122.867188 227.824219 124.191406 L 227.65625 123.984375 C 227.65625 122.6875 228.101562 121.351562 228.4375 120.109375 C 230.777344 119.226562 233.671875 118.753906 236.15625 118.480469 Z M 236.15625 118.480469 " fill-opacity="1" fill-rule="nonzero"/><path fill="#ffffff" d="M 242.316406 117.050781 L 242.476562 117.046875 L 242.472656 117.148438 C 241.324219 117.949219 239.925781 118.574219 238.6875 119.238281 L 238.554688 119.261719 C 238.410156 118.910156 238.628906 118.300781 238.699219 117.917969 C 239.886719 117.574219 241.113281 117.328125 242.316406 117.050781 Z M 242.316406 117.050781 " fill-opacity="1" fill-rule="nonzero"/><g clip-path="url(#425fa931c8)"><path fill="#03346e" d="M 188.90625 109.996094 C 176.652344 109.996094 166.683594 100.027344 166.683594 87.773438 C 166.683594 75.519531 176.652344 65.550781 188.90625 65.550781 C 191.710938 65.550781 194.441406 66.066406 197.03125 67.078125 C 197.441406 67.246094 197.652344 67.710938 197.484375 68.132812 C 197.316406 68.542969 196.851562 68.753906 196.429688 68.585938 C 194.039062 67.648438 191.5 67.160156 188.90625 67.160156 C 177.546875 67.160156 168.308594 76.402344 168.308594 87.761719 C 168.308594 99.121094 177.546875 108.363281 188.90625 108.363281 C 200.265625 108.363281 209.507812 99.121094 209.507812 87.761719 C 209.507812 85.707031 209.203125 83.671875 208.613281 81.734375 C 208.484375 81.300781 208.71875 80.859375 209.148438 80.722656 C 209.582031 80.597656 210.023438 80.828125 210.160156 81.261719 C 210.804688 83.367188 211.128906 85.550781 211.128906 87.761719 C 211.128906 100.027344 201.164062 109.996094 188.90625 109.996094 Z M 188.90625 109.996094 " fill-opacity="1" fill-rule="nonzero"/></g><path fill="#03346e" d="M 195.832031 100.554688 C 195.566406 100.554688 195.304688 100.425781 195.15625 100.183594 L 188.234375 89.542969 C 188.148438 89.417969 188.105469 89.257812 188.105469 89.101562 L 188.105469 75.800781 C 188.105469 75.359375 188.464844 74.992188 188.917969 74.992188 C 189.371094 74.992188 189.730469 75.347656 189.730469 75.800781 L 189.730469 88.859375 L 196.515625 99.300781 C 196.757812 99.679688 196.652344 100.175781 196.285156 100.417969 C 196.136719 100.511719 195.976562 100.554688 195.832031 100.554688 Z M 195.832031 100.554688 " fill-opacity="1" fill-rule="nonzero"/><g clip-path="url(#828b2e5994)"><path fill="#03346e" d="M 165.914062 68.152344 C 161.523438 68.152344 157.9375 64.570312 157.9375 60.175781 C 157.9375 55.78125 161.523438 52.199219 165.914062 52.199219 C 170.308594 52.199219 173.890625 55.78125 173.890625 60.175781 C 173.890625 64.570312 170.308594 68.152344 165.914062 68.152344 Z M 165.914062 53.820312 C 162.40625 53.820312 159.5625 56.675781 159.5625 60.175781 C 159.5625 63.675781 162.40625 66.53125 165.914062 66.53125 C 169.425781 66.53125 172.269531 63.683594 172.269531 60.175781 C 172.269531 56.667969 169.425781 53.820312 165.914062 53.820312 Z M 165.914062 53.820312 " fill-opacity="1" fill-rule="nonzero"/></g><path fill="#03346e" d="M 205.609375 75.738281 C 205.167969 75.738281 204.796875 75.378906 204.796875 74.925781 L 204.796875 66.488281 C 204.796875 66.046875 205.15625 65.675781 205.609375 65.675781 C 206.0625 65.675781 206.421875 66.035156 206.421875 66.488281 L 206.421875 74.9375 C 206.421875 75.378906 206.050781 75.738281 205.609375 75.738281 Z M 205.609375 75.738281 " fill-opacity="1" fill-rule="nonzero"/><path fill="#03346e" d="M 205.609375 78.953125 C 205.167969 78.953125 204.796875 78.59375 204.796875 78.140625 L 204.796875 78.121094 C 204.796875 77.679688 205.15625 77.308594 205.609375 77.308594 C 206.0625 77.308594 206.421875 77.667969 206.421875 78.121094 L 206.421875 78.140625 C 206.421875 78.585938 206.050781 78.953125 205.609375 78.953125 Z M 205.609375 78.953125 " fill-opacity="1" fill-rule="nonzero"/><path fill="#03346e" d="M 176.609375 83.632812 C 174.652344 83.632812 173.050781 82.039062 173.050781 80.070312 C 173.050781 78.109375 174.640625 76.507812 176.609375 76.507812 C 178.570312 76.507812 180.171875 78.097656 180.171875 80.070312 C 180.171875 82.039062 178.570312 83.632812 176.609375 83.632812 Z M 176.609375 78.140625 C 175.546875 78.140625 174.671875 79.015625 174.671875 80.082031 C 174.671875 81.144531 175.546875 82.019531 176.609375 82.019531 C 177.675781 82.019531 178.550781 81.144531 178.550781 80.082031 C 178.550781 79.015625 177.675781 78.140625 176.609375 78.140625 Z M 176.609375 78.140625 " fill-opacity="1" fill-rule="nonzero"/><path fill="#03346e" d="M 201.214844 99.027344 C 199.253906 99.027344 197.652344 97.433594 197.652344 95.464844 C 197.652344 93.492188 199.246094 91.902344 201.214844 91.902344 C 203.183594 91.902344 204.777344 93.492188 204.777344 95.464844 C 204.777344 97.433594 203.175781 99.027344 201.214844 99.027344 Z M 201.214844 93.527344 C 200.152344 93.527344 199.277344 94.398438 199.277344 95.464844 C 199.277344 96.527344 200.152344 97.402344 201.214844 97.402344 C 202.28125 97.402344 203.152344 96.527344 203.152344 95.464844 C 203.152344 94.398438 202.28125 93.527344 201.214844 93.527344 Z M 201.214844 93.527344 " fill-opacity="1" fill-rule="nonzero"/></svg>