<svg xmlns="http://www.w3.org/2000/svg" xmlns:xlink="http://www.w3.org/1999/xlink" width="378" zoomAndPan="magnify" viewBox="0 0 282.96 283.499989" height="378" preserveAspectRatio="xMidYMid meet" version="1.0"><defs><clipPath id="fc8c6c6bb6"><path d="M 0.230469 0 L 282.691406 0 L 282.691406 283 L 0.230469 283 Z M 0.230469 0 " clip-rule="nonzero"/></clipPath><clipPath id="07339d14bb"><path d="M 67.714844 40.460938 L 215.953125 40.460938 L 215.953125 242.605469 L 67.714844 242.605469 Z M 67.714844 40.460938 " clip-rule="nonzero"/></clipPath></defs><g clip-path="url(#fc8c6c6bb6)"><path fill="#ffffff" d="M 0.230469 0 L 283.230469 0 L 283.230469 283 L 0.230469 283 Z M 0.230469 0 " fill-opacity="1" fill-rule="nonzero"/><path fill="#ffffff" d="M 0.230469 0 L 283.230469 0 L 283.230469 283 L 0.230469 283 Z M 0.230469 0 " fill-opacity="1" fill-rule="nonzero"/></g><g clip-path="url(#07339d14bb)"><path fill="#03346e" d="M 72.023438 213.035156 C 71.066406 213.949219 69.542969 213.910156 68.632812 212.949219 C 67.71875 211.988281 67.757812 210.46875 68.714844 209.558594 C 72.050781 206.394531 76.023438 203.921875 80.359375 202.238281 C 82.960938 201.226562 85.695312 200.503906 88.496094 200.085938 L 78.628906 173.910156 L 139.304688 141.730469 L 139.304688 218.039062 L 138.933594 218.011719 C 139.820312 218.078125 140.746094 218.113281 141.710938 218.113281 C 142.675781 218.113281 143.601562 218.078125 144.488281 218.011719 L 144.117188 218.039062 L 144.117188 141.730469 L 204.792969 173.910156 L 194.925781 200.085938 C 197.730469 200.503906 200.457031 201.234375 203.0625 202.238281 C 207.402344 203.921875 211.371094 206.394531 214.707031 209.558594 C 215.667969 210.46875 215.703125 211.988281 214.789062 212.949219 C 213.878906 213.910156 212.355469 213.949219 211.398438 213.035156 C 208.519531 210.304688 205.085938 208.167969 201.332031 206.710938 C 197.574219 205.253906 193.476562 204.480469 189.269531 204.480469 C 178.441406 204.480469 172.6875 208.84375 166.9375 213.203125 C 160.53125 218.066406 154.121094 222.925781 141.710938 222.925781 C 129.300781 222.925781 122.890625 218.066406 116.484375 213.203125 C 110.734375 208.84375 104.980469 204.480469 94.148438 204.480469 C 89.945312 204.480469 85.847656 205.253906 82.089844 206.710938 C 78.335938 208.167969 74.902344 210.304688 72.023438 213.035156 Z M 144.117188 117.105469 L 144.117188 136.296875 L 206.5 169.378906 L 212.527344 153.386719 L 197.628906 145.484375 C 197.53125 145.441406 197.433594 145.390625 197.34375 145.332031 Z M 139.304688 117.105469 L 86.074219 145.335938 C 85.988281 145.390625 85.894531 145.4375 85.800781 145.480469 L 70.894531 153.386719 L 76.921875 169.378906 L 139.304688 136.296875 Z M 179.925781 102.308594 L 196.199219 102.308594 L 196.199219 139.292969 L 142.988281 111.070312 C 142.617188 110.839844 142.179688 110.703125 141.710938 110.703125 C 141.242188 110.703125 140.804688 110.839844 140.433594 111.070312 L 87.222656 139.292969 L 87.222656 102.308594 Z M 174.019531 88.074219 L 105.90625 88.074219 L 105.90625 97.496094 L 177.515625 97.496094 L 177.515625 88.074219 Z M 150.695312 73.835938 L 111.808594 73.835938 L 111.808594 83.257812 L 171.613281 83.257812 L 171.613281 73.835938 Z M 135.132812 59.597656 L 135.132812 69.023438 L 148.289062 69.023438 L 148.289062 59.597656 L 144.117188 59.597656 L 144.117188 43.144531 C 144.117188 41.816406 143.039062 40.738281 141.710938 40.738281 C 140.382812 40.738281 139.304688 41.816406 139.304688 43.144531 L 139.304688 59.597656 Z M 72.023438 232.382812 C 74.902344 229.65625 78.335938 227.515625 82.089844 226.0625 C 85.847656 224.601562 89.945312 223.828125 94.148438 223.828125 C 104.980469 223.828125 110.734375 228.191406 116.484375 232.554688 C 122.890625 237.414062 129.300781 242.277344 141.710938 242.277344 C 154.121094 242.277344 160.53125 237.414062 166.9375 232.550781 C 172.6875 228.191406 178.441406 223.828125 189.269531 223.828125 C 193.476562 223.828125 197.574219 224.601562 201.332031 226.0625 C 205.085938 227.515625 208.519531 229.65625 211.398438 232.382812 C 212.355469 233.296875 213.878906 233.257812 214.789062 232.300781 C 215.703125 231.339844 215.667969 229.820312 214.707031 228.90625 C 211.371094 225.746094 207.402344 223.269531 203.0625 221.585938 C 198.730469 219.90625 194.042969 219.015625 189.269531 219.015625 C 176.863281 219.015625 170.453125 223.875 164.042969 228.738281 C 158.292969 233.097656 152.539062 237.460938 141.710938 237.460938 C 130.882812 237.460938 125.128906 233.097656 119.378906 228.738281 C 112.96875 223.875 106.558594 219.015625 94.148438 219.015625 C 89.378906 219.015625 84.691406 219.90625 80.359375 221.585938 C 76.023438 223.269531 72.050781 225.742188 68.714844 228.90625 C 67.757812 229.820312 67.71875 231.339844 68.632812 232.300781 C 69.542969 233.257812 71.066406 233.296875 72.023438 232.382812 Z M 72.023438 232.382812 " fill-opacity="1" fill-rule="evenodd"/></g></svg>